<?xml version="1.0" encoding="utf-8"?>
<svg xmlns="http://www.w3.org/2000/svg" xmlns:xlink="http://www.w3.org/1999/xlink" version= "1.1" width="720px" height="1424px" viewBox="0 0 720 1424">
<g id="layer1">
<g style="fill:rgb(113,184,199); fill-opacity:1.0; stroke-linejoin: miter">
<path d="M-221.86893,1524.5255L700.01843,1524.5259L1621.9058,1524.5264Q1621.9058,914.194,1621.9058,303.86166Q700.01843,303.86215,-221.86893,303.86267Q-221.86893,914.1941,-221.86893,1524.5255"/>
</g>
<g style="fill:rgb(0,0,0); fill-opacity:1.0; stroke-linejoin: miter">
<path d="M1104.0881,639.83905L1101.7808,637.7881Q1080.3943,619.27185,1079.0968,609.96893Q1078.1368,606.2068,1078.1545,602.5355Q1078.0856,597.8361,1079.3762,589.9977Q1079.9426,586.5812,1081.2653,583.1688Q1082.5878,579.75653,1085.4225,576.35266Q1091.5277,569.31165,1103.4823,564.1879Q1111.9749,560.4065,1122.2141,560.2222Q1129.2412,560.15314,1138.0739,564.84357Q1144.8395,568.4737,1156.0134,578.28125L1104.0881,639.83905"/>
</g>
<g style="fill:rgb(255,183,159); fill-opacity:1.0; stroke-linejoin: miter">
<path d="M1162.4384,592.1649L1164.5754,591.9038Q1158.0793,580.0592,1155.3429,577.5553Q1138.3679,582.41345,1134.4751,586.0139Q1129.7625,589.40533,1129.5249,598.5314L1120.9985,596.5406Q1116.2512,590.98914,1114.8893,590.24976Q1112.8257,588.5401,1110.9156,589.592Q1107.8845,592.27954,1107.6737,599.30725Q1107.6799,602.9057,1111.6323,604.39606L1100.9332,612.5805L1102.2556,625.8898L1162.4384,592.1649"/>
</g>
<g style="fill:rgb(0,0,0); fill-opacity:1.0; stroke-linejoin: miter">
<path d="M1625.9642,1529.1005L1570.415,1527.9294Q1572.4911,1484.6807,1590.985,1465.7583L1596.7151,1421.7228Q1597.7858,1411.2057,1596.2953,1392.8424Q1581.0623,1293.0626,1582.2437,1275.8557Q1579.8113,1251.5116,1599.5792,1207.0038L1578.0564,1174.885Q1554.458,1175.3064,1545.9493,1163.99Q1535.1976,1152.604,1534.0078,1137.828Q1533.3655,1135.9598,1536.224,1128.0142Q1554.9708,1101.038,1553.4022,1096.303L1547.4318,1047.396L1566.061,1019.7391Q1569.0776,1013.26886,1568.0276,1012.0523Q1566.8523,1006.9983,1560.6216,1002.1188Q1525.8108,981.9028,1520.6571,970.07324Q1494.2728,983.3296,1485.1981,965.76746Q1479.0049,957.26764,1477.402,945.3283L1480.5918,898.9874Q1481.075,890.94385,1444.2565,866.1825Q1446.1283,840.9973,1442.0437,836.733Q1404.8512,790.44604,1403.7318,783.50903L1398.6648,765.78577Q1398.2646,722.10645,1393.6931,720.22986Q1397.0044,713.8027,1347.786,702.76636Q1336.7766,697.0038,1336.2762,694.3441Q1333.6321,690.47656,1332.4731,685.4035L1327.2766,647.1735Q1322.5276,642.18054,1315.3362,645.3154L1263.5361,671.1577Q1252.4922,676.04724,1244.9631,673.4536Q1242.3738,673.88794,1236.7283,663.78674Q1226.7917,619.17554,1219.5676,610.98016Q1221.6346,606.84106,1165.0686,564.563L1128.0715,517.3906Q1125.5743,516.14,1123.4993,518.69006Q1109.999,546.16876,1106.1951,548.93225Q1096.7041,559.02454,1091.0352,561.07275Q1061.6952,573.43506,1025.7863,563.97595Q967.07574,551.8761,1010.57465,467.7135Q974.29865,457.58026,947.8668,459.57635Q935.28204,458.87048,877.8382,480.04578L865.3691,480.90775Q858.49066,487.13434,823.19995,428.02344L767.47876,419.3059L768.407,468.6062Q750.3131,481.411,749.353,494.40683L760.9518,533.6361Q754.1312,541.56213,738.7251,536.04846Q719.51196,528.38513,718.4487,508.93573Q713.64465,504.6046,734.01184,453.65186L734.0953,439.9542Q730.2571,421.28012,703.12286,404.24026Q688.6704,397.35748,685.37225,402.69818Q676.93195,434.1308,671.99854,432.68127Q661.9756,435.99222,651.25244,432.15158Q594.61206,410.84775,596.0514,381.32227Q561.8009,381.841,556.1054,377.2633L507.8136,347.78113Q501.28174,344.40198,486.246,348.45172Q446.8189,367.36594,440.8944,366.7785Q426.20343,369.65042,409.79095,365.96442Q377.38177,360.27167,311.3822,303.29004L1618.9056,304.7467L1625.9642,1529.1005"/>
</g>
<g style="fill:rgb(255,183,159); fill-opacity:1.0; stroke-linejoin: miter">
<path d="M1165.5302,585.5098L1189.3949,567.05505L1205.355,517.7242L1217.828,524.6755L1214.5802,579.2489L1173.9834,611.12885L1165.5302,585.5098"/>
</g>
<g style="fill:rgb(255,183,159); fill-opacity:1.0; stroke-linejoin: miter">
<path d="M1191.7518,627.32056L1206.5038,595.99347L1225.1343,535.3374L1235.8455,542.8187L1222.3882,631.34314L1198.1752,651.36804L1191.7518,627.32056"/>
</g>
<g style="fill:rgb(255,183,159); fill-opacity:1.0; stroke-linejoin: miter">
<path d="M1157.3794,986.9931L1122.288,1007.92377L1097.7996,1024.7754L1087.0704,1013.039Q1089.0554,1012.15985,1092.0869,1007.48615L1106.5507,984.10284Q1110.1133,978.5128,1113.4507,974.101Q1120.8245,964.5535,1128.9327,960.26056L1130.2051,959.50745Q1135.6033,960.5147,1140.5295,962.011Q1145.2743,963.34094,1149.3293,966.80334Q1154.6896,971.5863,1157.3794,986.9931"/>
</g>
<g style="fill:rgb(0,0,0); fill-opacity:1.0; stroke-linejoin: miter">
<path d="M1422.2059,795.55066L1445.0143,785.55914L1464.0154,762.75494L1476.5183,770.3962L1466.3289,790.79364L1451.9893,807.13995L1451.295,824.82996L1438.0017,843.23975Q1419.3766,834.54584,1414.6615,831.17883Q1408.0394,827.12744,1406.3796,821.7218Q1405.8937,820.2439,1405.7126,816.9001L1418.4971,816.1099L1422.2059,795.55066"/>
</g>
<g style="fill:rgb(255,183,159); fill-opacity:1.0; stroke-linejoin: miter">
<path d="M1423.1394,795.39526L1423.5385,796.7051Q1427.4642,808.20746,1425.7887,814.1498Q1422.7288,821.58093,1413.7483,822.3791Q1411.7631,822.36346,1410.0544,821.7321Q1407.8938,820.99854,1404.4777,818.6245L1402.2053,817.7361Q1389.7327,812.78864,1381.4208,810.5417Q1376.6742,809.24634,1371.7574,808.3769L1352.4043,805.1346Q1346.7074,803.8519,1345.7015,803.44714Q1336.0803,800.4311,1324.235,793.7526Q1331.4755,777.26733,1332.749,770.95984Q1334.4576,763.5553,1333.1333,754.87146Q1350.9573,759.4807,1360.8794,764.6289Q1365.2253,766.9727,1368.8857,769.8544L1383.018,781.39777Q1385.6832,783.55096,1392.8767,787.03143Q1408.783,793.7428,1423.1394,795.39526"/>
</g>
<g style="fill:rgb(0,0,0); fill-opacity:1.0; stroke-linejoin: miter">
<path d="M1332.178,740.12177L1336.7045,762.58Q1332.9142,785.4863,1329.1068,795.90796Q1326.0454,804.5156,1320.124,808.0282Q1318.0353,809.0855,1316.2156,809.0917Q1308.0148,807.0731,1306.877,808.18146L1289.851,818.1353Q1286.2783,820.28326,1275.3563,822.5879Q1261.5105,825.02356,1232.119,824.6445Q1223.1052,832.3937,1217.4683,835.43066Q1212.033,838.61707,1198.9033,843.31506L1175.9595,855.51196Q1183.9711,890.96826,1182.3772,918.97266Q1182.2291,927.9044,1179.7091,956.883Q1175.9298,979.8158,1171.3174,997.1697L1149.1234,996.2427Q1153.734,981.6543,1148.3605,976.05725Q1144.3572,970.15735,1120.9928,961.75165Q1127.6294,956.44916,1129.7876,951.77783Q1132.6597,946.4908,1131.5262,936.6824Q1129.3516,921.43396,1116.9292,888.9321Q1102.8121,868.4007,1100.7236,855.7357Q1097.7483,843.49884,1101.7379,814.2258L1098.5408,788.0598L1183.5568,753.6925Q1192.5706,758.7032,1191.8776,770.5056Q1241.5703,743.6537,1283.2844,732.2864Q1293.1777,730.037,1300.0591,730.98505Q1306.575,731.4513,1315.1438,737.7741L1332.178,740.12177"/>
</g>
<g style="fill:rgb(255,220,64); fill-opacity:1.0; stroke-linejoin: miter">
<path d="M1095.8031,796.34436L1096.7493,791.9753Q1102.2504,768.2484,1101.3452,748.65173Q1100.882,737.50006,1098.3427,724.26416Q1097.2028,717.4562,1089.6735,684.51697Q1086.5687,669.261,1086.4913,667.07214Q1084.5676,651.59436,1087.8661,643.8242Q1090.3093,636.89777,1098.3003,629.7308Q1100.7076,619.95154,1103.1168,616.8351Q1106.9932,611.3509,1110.3391,609.15076Q1110.3722,606.32837,1169.1466,580.0687L1181.0466,605.61566L1160.3176,621.36646L1163.3313,648.3699Q1178.3099,662.9547,1179.5837,673.93427Q1181.9668,684.25586,1174.3022,712.2735Q1174.3374,734.3709,1176.2493,740.46747Q1178.5228,752.252,1192.7504,755.4369L1095.8031,796.34436"/>
</g>
<g style="fill:rgb(255,220,64); fill-opacity:1.0; stroke-linejoin: miter">
<path d="M1158.029,638.06134L1159.5178,637.0146Q1169.2207,629.9968,1175.6553,627.47266Q1181.3951,625.0626,1192.3191,624.82886L1204.9185,646.89465Q1198.269,654.5255,1193.9053,658.69165Q1190.168,662.27844,1186.2592,664.97076Q1181.7025,668.13025,1174.3344,672.0111L1158.029,638.06134"/>
</g>
<g style="fill:rgb(0,0,0); fill-opacity:1.0; stroke-linejoin: miter">
<path d="M1083.2119,593.0206L1073.2139,588.9379Q1070.1697,591.1883,1068.384,591.4807Q1066.4846,591.98157,1063.8846,590.82385Q1060.9998,589.4348,1058.5845,586.56866Q1056.1716,583.7029,1056.086,580.51483Q1056.1012,579.48035,1056.396,578.4778Q1056.4055,577.938,1057.7864,575.6039Q1058.4083,574.6956,1059.1868,573.8812L1059.9922,573.09644Q1060.8306,572.3382,1061.7517,571.71094Q1067.2822,568.09186,1072.1497,569.76605Q1073.8334,570.3544,1075.2327,572.6317Q1076.1869,573.9017,1077.5964,579.56384L1096.0414,579.6057L1083.2119,593.0206"/>
</g>
<g style="fill:rgb(0,0,0); fill-opacity:1.0; stroke-linejoin: miter">
<path d="M1089.3741,1008.4305L1089.5065,1009.3353Q1090.1805,1015.4086,1092.6725,1017.5214Q1094.7433,1019.5484,1102.8639,1019.4925L1096.3799,1032.314Q1098.5524,1037.8787,1095.9448,1042.8734Q1095.8302,1043.3785,1093.3861,1046.4335L1085.0958,1055.5891Q1082.6743,1058.8391,1082.5826,1059.4248Q1082.1031,1060.0645,1081.623,1063.0208L1081.5508,1070.5326Q1081.447,1071.9241,1081.069,1073.4833Q1080.6599,1075.107,1079.9634,1076.6877Q1077.9142,1080.8545,1077.1771,1081.7151Q1068.6218,1093.609,1061.234,1091.6199Q1056.4431,1090.0608,1053.0146,1085.093Q1052.309,1084.368,1050.1837,1080.1401Q1048.6643,1076.7552,1048.2578,1073.5227Q1047.4901,1067.296,1050.6726,1058.9768Q1054.8722,1047.2494,1063.1112,1033.6224Q1067.9263,1025.9265,1073.1958,1020.7681Q1079.312,1014.7255,1089.3741,1008.4305"/>
</g>
<g style="fill:rgb(75,45,35); fill-opacity:1.0; stroke-linejoin: miter">
<path d="M1070.8486,766.0104L1097.1857,759.5484L1123.5227,753.0865Q1120.2032,789.2614,1116.8838,825.4364Q1092.4486,837.07336,1068.0134,848.7104Q1063.9125,838.97626,1059.8115,829.24207L1070.8486,766.0104"/>
</g>
<g style="fill:rgb(75,45,35); fill-opacity:1.0; stroke-linejoin: miter">
<path d="M1105.0294,764.76385L1097.3152,630.1065Q1091.6545,635.1953,1089.3307,639.2049Q1088.4525,640.5099,1087.5791,643.91345Q1087.1971,645.3698,1086.9346,648.9597L1086.7917,652.0619Q1090.6716,688.85913,1092.062,706.2398Q1093.3462,723.1955,1093.3705,725.656Q1093.6594,731.539,1093.7024,736.4376Q1093.7379,741.30646,1093.5276,745.191L1093.2668,748.87415Q1092.9503,752.33356,1092.4548,755.0772Q1091.261,762.1151,1087.7347,769.27124L1105.0294,764.76385"/>
</g>
<g style="fill:rgb(75,45,35); fill-opacity:1.0; stroke-linejoin: miter">
<path d="M1163.7065,633.8682L1162.307,629.5895L1160.9076,625.3108Q1133.3811,699.48425,1105.8547,773.6577Q1110.9872,775.10266,1116.1195,776.5476L1163.7065,633.8682"/>
</g>
</g>
</svg>