<?xml version="1.0" encoding="utf-8"?>
<svg xmlns="http://www.w3.org/2000/svg" xmlns:xlink="http://www.w3.org/1999/xlink" version= "1.1" width="1073px" height="767px" viewBox="-177 328 1073 767">
<g id="layer1">
<g style="fill:rgb(118,184,188); fill-opacity:1.0; stroke-linejoin: miter">
<path d="M-186.76057,325.34164L-186.90984,325.3564L-187.52103,1086.4856L907.3467,1086.4838L907.05896,325.50143L-186.76057,325.34164 Z"/>
</g>
<g>
<g style="fill:rgb(18,145,151); fill-opacity:1.0; stroke-linejoin: miter">
<path d="M343.44913,452.98593C217.83368,452.98593,115.16877,553.96246,113.47674,679.95667C111.770615,807.00256,213.37791,911.3756,340.42413,913.0812C341.476,913.0953,342.52634,913.10236,343.57507,913.10236C469.1911,913.10236,571.85864,812.1268,573.5515,686.13293C575.25793,559.0869,473.6497,454.71243,346.60266,453.0071C345.54993,452.99298,344.49872,452.98593,343.44913,452.98593 Z"/>
</g>
<g style="fill:rgb(148,224,92); fill-opacity:1.0; stroke-linejoin: miter">
<path d="M376.9309,575.4054C370.63376,575.4054,362.73926,576.719,352.99628,580.42334C352.99628,580.42334,294.04483,614.78125,292.80746,649.9338C292.80746,649.9338,275.59094,719.3046,336.92297,729.6427C336.92297,729.6427,361.76453,721.8221,382.52057,721.8221C395.2624,721.8221,406.46457,724.76935,409.43497,734.2823C409.43497,734.2823,411.24954,765.08,417.0916,771.7477C417.0916,771.7477,426.51758,786.02625,425.66754,794.56635C425.66754,794.56635,418.60583,823.03656,427.21637,845.1455C427.21637,845.1455,432.86954,864.26434,432.05508,870.1152C432.05508,870.1152,488.56564,854.74695,507.03418,802.2557C507.03418,802.2557,517.8994,765.7751,518.76245,756.2585C518.76245,756.2585,534.13495,713.9758,538.0203,700.8467C538.0203,700.8467,550.3244,665.895,533.1065,665.895C532.0486,665.895,530.87915,666.027,529.58856,666.3071C529.58856,666.3071,514.2266,651.4399,503.27997,640.29956C492.30994,629.1646,471.40286,587.13025,465.51608,583.39215C465.51608,583.39215,443.67548,587.603,423.8092,587.603C413.6953,587.603,404.09314,586.51166,398.145,583.21765C398.145,583.21765,392.28793,575.4054,376.9309,575.4054 Z"/>
</g>
<g style="fill:rgb(148,224,92); fill-opacity:1.0; stroke-linejoin: miter">
<path d="M371.27164,453.5174L373.47214,454.06482Q381.726,456.82202,390.6022,462.56287Q399.25082,468.27194,397.08167,470.4061Q394.69873,474.69922,389.76517,475.92792Q371.61557,470.77618,361.033,476.5007Q352.60016,482.54977,351.87216,498.35898Q352.27066,503.1732,375.24283,502.1458Q376.72455,497.52002,368.68497,488.34613Q369.59286,483.10858,376.1201,483.33502Q376.7503,483.24606,378.93173,484.87732L385.20993,492.28107Q387.22525,497.40485,386.5466,509.07544Q385.59012,511.12537,381.61987,510.70618Q365.79065,507.11847,364.86212,507.6816Q363.4619,507.04904,359.65622,510.32825L343.2661,532.2866Q342.88074,532.58215,342.80508,536.844L343.95746,551.04895Q343.53238,551.7334,339.87018,552.1671Q323.43167,552.2576,323.02554,552.7866Q318.95816,553.5988,318.33167,555.60693Q315.55994,565.1006,321.4715,578.2528Q323.35898,582.119,344.529,578.70966Q348.14505,577.0535,356.45306,561.7844Q364.4845,554.3446,373.00412,551.8448Q375.9109,551.93,376.0692,554.2004L376.602,564.69946Q377.79517,566.2038,388.41144,567.9531Q390.657,568.6906,392.21167,571.1073Q393.3879,571.35596,396.9909,569.3808Q398.5709,568.7101,407.0257,562.28577Q408.54846,561.3233,409.96707,561.1452Q412.26895,560.0874,418.2134,566.8791Q419.34314,567.5643,422.02856,567.6489Q441.0548,563.8686,442.9804,564.40796L454.79117,560.64935Q457.74896,560.0382,459.16388,560.5641Q468.94586,566.1802,452.95667,581.0216L514.3917,638.99646Q518.3292,642.2189,521.7086,643.11053Q532.1083,646.05096,539.53754,630.97565Q544.0049,625.9177,539.67194,599.8136Q538.62506,595.9145,536.5144,595.33984L519.97614,591.3552Q518.2462,591.02954,511.76233,586.6813Q506.7993,582.8389,504.53455,579.2156Q501.97574,575.53577,504.65967,574.5171Q504.80475,574.076,510.41125,576.28705L531.38885,586.4795Q534.9418,587.303,542.54694,582.96857L545.77936,585.0653Q559.26904,601.74884,572.9479,648.6448L563.7691,609.00977L550.0135,575.09564L532.6383,546.4611L512.6002,522.665L490.85657,503.26593L468.364,487.82248Q445.49704,474.35687,424.9605,467.03738Q404.42395,459.71793,390.04565,456.77924Q375.66925,453.84048,371.27164,453.5174 Z"/>
</g>
<g style="fill:rgb(148,224,92); fill-opacity:1.0; stroke-linejoin: miter">
<path d="M369.92935,453.3746L369.94348,453.3759Q370.11697,453.39136,370.5421,453.43588Q371.21414,453.5087,371.26468,453.51715Q370.52554,453.38373,369.92935,453.3746"/>
</g>
<g style="fill:rgb(148,224,92); fill-opacity:1.0; stroke-linejoin: miter">
<path d="M332.50253,506.1565C332.50253,506.1565,326.54498,509.73682,323.50375,514.8132C320.46396,519.9041,320.40494,524.29987,320.40494,524.29987C320.40494,524.29987,324.1385,526.5379,327.92676,526.60156C327.96063,526.6021,327.995,526.6024,328.02988,526.6024C331.91095,526.6024,341.90564,523.08984,341.97382,518.00433C342.0428,512.8741,332.50253,506.1565,332.50253,506.1565 Z"/>
</g>
<g style="fill:rgb(148,224,92); fill-opacity:1.0; stroke-linejoin: miter">
<path d="M310.4521,460.7764C284.92282,460.7764,247.12303,469.83057,247.10214,469.83057L247.10213,469.83057C174.80553,504.03525,142.56291,559.6943,142.56291,559.6943C138.58804,567.9275,132.16704,588.0814,133.43903,588.0814C133.67523,588.0814,134.17671,587.3864,135.0084,585.7911C140.34679,575.6051,153.2079,568.2102,165.19708,558.1203C177.16652,548.016,212.8967,533.84863,221.10774,531.0288C229.28502,528.20764,228.74156,512.8161,232.54099,507.0053C236.30026,501.1888,243.07632,492.50775,251.31349,486.75714C259.10223,481.31226,277.6421,468.76077,283.32013,468.76077C283.6321,468.76077,283.90524,468.79868,284.13565,468.87772C288.54636,470.38895,268.39468,483.30768,260.89975,489.0813C254.87076,493.7251,261.8358,498.06613,266.72614,498.06613C267.9025,498.06613,268.9588,497.81494,269.68533,497.25638C273.4202,494.3627,288.32004,487.24805,297.24368,485.16742C306.15192,483.086,324.21185,462.08304,324.21185,462.08304C320.43466,461.15942,315.70294,460.7764,310.4521,460.7764 Z"/>
</g>
<g style="fill:rgb(148,224,92); fill-opacity:1.0; stroke-linejoin: miter">
<path d="M123.1535,671.3219C120.86993,671.3219,118.36359,672.34424,114.73437,673.91833C106.54731,677.4674,113.43163,717.1257,113.43163,717.1257C128.33295,839.15784,220.12633,879.6873,220.12968,879.6893C217.96399,876.0001,210.8177,855.4084,210.15651,848.8024C209.49971,842.2172,213.92805,842.99896,219.91301,839.41766C225.87793,835.82526,220.80852,826.9697,219.39958,821.81934C217.98859,816.68195,222.60313,803.56305,224.94885,794.8022C227.29535,786.0416,217.01709,777.8533,209.70406,771.15924C202.40486,764.4564,189.8768,759.8978,183.25061,756.8847C176.61139,753.8649,172.17586,753.07,169.3118,747.17017C166.42007,741.27686,169.55777,728.8587,169.62668,723.72833C169.69559,718.6036,156.47981,710.371,152.83278,703.73755C149.22682,697.09186,139.53111,684.5443,132.482,677.0876C128.53621,672.9333,126.02041,671.3219,123.1535,671.3219 Z"/>
</g>
<g style="fill:rgb(255,81,0); fill-opacity:0.99607843; stroke-linejoin: miter">
</g>
<g style="fill:rgb(194,194,194); fill-opacity:1.0; stroke-linejoin: miter">
</g>
<g style="fill:rgb(255,177,147); fill-opacity:1.0; stroke-linejoin: miter">
<path d="M478.24518,856.1892L478.44666,856.1937Q478.72617,856.01605,482.88116,857.40106L489.74945,858.1989Q490.933,858.42596,491.29193,858.92377Q491.92477,859.5116,492.85712,861.34717Q496.67374,869.94727,498.8682,873.5956Q501.97247,878.9735,504.03033,881.48914Q506.9102,887.91614,507.37976,892.7412Q507.63266,894.69525,507.59506,894.805L507.40988,900.64526L508.02524,911.017Q507.68872,912.87274,506.33896,913.7359Q504.7088,914.7915,498.89453,916.9735Q489.45642,920.1991,477.8349,921.42847Q474.51843,920.96783,472.94177,919.0634Q470.26355,914.6491,465.7965,904.4326Q463.45746,900.31696,462.3374,899.19415Q461.91934,898.5335,461.71115,897.9746Q461.4203,897.2087,461.6032,896.45715Q462.6028,894.6,462.59128,893.80194Q462.7875,892.29364,462.64307,889.983L460.79984,880.15295Q460.37308,873.6304,459.9666,872.77246Q459.9111,872.37775,459.35675,870.92554L457.49603,867.2679Q457.08804,865.9841,457.1552,865.8331Q457.04044,864.59595,458.233,863.994Q459.38464,863.5175,465.81708,863.1969Q467.40573,862.8863,467.93552,862.5531Q468.87564,862.22504,471.97705,859.3172Q473.65656,858.11414,475.03537,857.28265Q476.7456,856.1838,478.24518,856.1892 M558.96326,727.7462L558.56195,727.75476Q548.7577,729.4956,547.24976,744.88586Q552.15155,771.3944,553.6874,813.04297Q553.7776,818.4652,551.43964,826.1832L550.44617,841.5304L548.1251,855.00073Q547.34595,857.5436,544.7156,861.3839Q539.39294,867.37537,532.9082,865.55176L516.84485,838.75085Q514.2532,834.5643,511.55945,833.5326Q482.75897,828.31616,468.62802,831.9511Q465.74643,832.94727,464.48047,834.4176Q459.85468,838.95905,450.88977,851.69855Q442.26807,849.38477,440.97168,852.69214Q440.1904,853.4637,438.9516,859.347Q437.97003,874.30426,435.11566,883.21454Q432.64722,891.0516,429.18454,897.257Q428.61267,898.4437,428.55408,900.75366Q428.5791,902.63916,429.7506,905.6222L450.61664,951.5562Q461.87646,967.54846,473.2795,990.4988L480.39203,1001.1216L491.19275,1022.63104L548.65045,1059.3672L558.3263,1067.1152L573.4851,1083.4764Q579.56335,1085.1218,579.2045,1086.4844L583.7945,1086.4854Q587.2928,1078.718,588.7786,1068.6847L585.2449,1037.83Q582.7806,1028.4343,582.569,1029.3411Q572.949,1017.8572,573.369,1016.7784Q571.43787,1012.45044,569.6557,996.3948Q571.1933,962.1139,579.9839,930.94666Q579.4829,926.52423,591.0517,916.9652L626.8921,897.32544Q653.7313,858.03125,659.46173,837.3479Q656.31934,826.9628,643.90894,835.73035Q641.869,837.25195,640.90875,839.02386Q639.72815,844.70795,631.79645,857.7377L620.43054,870.0995Q604.68225,884.1951,597.7541,883.19196Q596.93896,881.9012,597.83887,879.8575L612.2862,847.394Q614.18,837.80316,622.9464,818.336L625.29565,801.9075L630.7967,781.7747L633.46075,766.77325Q633.8274,762.65454,633.25757,761.3519Q631.3997,754.0757,623.4625,755.5856Q620.0438,754.95276,613.97076,765.6676L612.074,769.1734L610.56433,777.7681L599.1953,812.3192Q592.2866,828.86017,588.3294,835.3099Q586.79016,838.1205,585.5588,837.32513Q584.55066,836.81323,584.6326,835.3184Q586.1311,824.84265,585.4392,823.2232Q580.09045,798.37335,580.3586,793.0138Q578.8529,783.0818,574.7727,775.3657Q570.9567,750.8741,567.3712,735.54614Q566.324,728.05945,558.96326,727.7462 Z"/>
</g>
<g style="fill:rgb(255,177,147); fill-opacity:1.0; stroke-linejoin: miter">
</g>
<g style="fill:rgb(255,255,255); fill-opacity:1.0; stroke-linejoin: miter">
<path d="M474.22507,997.29535Q474.225,1010.9135,474.22507,1024.5319Q526.7401,1024.5317,579.25507,1024.5314Q579.255,1010.91364,579.25507,997.296L526.7401,997.2956L474.22507,997.29535 Z"/>
</g>
<g style="fill:rgb(0,0,0); fill-opacity:1.0; stroke-linejoin: miter">
<path d="M471.12387,1014.4659L470.23074,1086.4855L590.82214,1086.4854L591.6974,1015.96246L471.12387,1014.4659 Z"/>
</g>
<g style="fill:rgb(0,12,17); fill-opacity:1.0; stroke-linejoin: miter">
<path d="M459.26044,631.30084C459.7494,631.30084,460.1535,631.3054,460.41025,631.3157C466.9343,631.5997,472.80313,632.7446,478.81918,634.9138C485.9344,637.4824,492.451,641.32886,498.1864,646.34296C499.26416,647.2918,499.32788,647.3445,500.45233,648.44293C503.17822,651.1029,505.27814,653.53827,507.49738,656.6148C513.3899,664.80804,517.1194,674.29486,518.4153,684.4266C518.78705,687.28174,518.9985,691.7698,518.8925,694.3269C518.57355,701.772,517.23663,708.2108,514.64197,714.7984C510.2439,725.9473,502.38647,735.7878,492.46832,742.5599C483.92316,748.4034,474.12714,751.93823,463.7782,752.9197C462.48468,753.0412,458.78683,753.18854,457.1583,753.18854C456.98706,753.18854,456.83868,753.18695,456.71838,753.1835C454.69818,753.12646,452.69647,753.00745,451.4215,752.8616C451.06317,752.81995,450.45636,752.7462,450.0774,752.70496C445.1904,752.13464,439.22946,750.5402,434.3782,748.50665C431.53452,747.32,429.08,746.0711,426.3431,744.4206C411.5713,735.53516,401.2186,720.59283,398.04498,703.5699C397.4305,700.27045,397.23984,698.42413,397.0933,694.4075C396.9498,690.46606,396.99567,688.8994,397.35352,685.53705C398.97903,670.2475,406.41806,656.0912,418.11685,646.00775C422.92828,641.86523,428.3719,638.49603,434.25964,636.01624C439.7622,633.70166,445.86963,632.1614,451.70395,631.6054C452.42215,631.538,453.17477,631.46954,453.3799,631.4482C454.1582,631.3707,457.35406,631.30084,459.26044,631.30084 Z M457.97116,609.99695C455.76022,609.99695,453.52368,610.059,451.88406,610.18463C446.86743,610.5734,441.17145,611.54285,436.7068,612.7692C434.7973,613.2918,432.38074,614.03186,431.24243,614.43726C424.47327,616.8392,419.3076,619.361,413.3716,623.1534C411.13132,624.58716,407.5754,627.2084,405.35056,629.06696C401.12103,632.59784,396.61612,637.23737,393.3699,641.3915C388.0322,648.23004,383.95023,655.44135,380.99524,663.2498C377.66467,672.05383,375.96124,680.867,375.7015,690.6912C375.65622,692.4636,375.86163,698.1052,376.03348,699.80786C376.83304,707.617,378.31757,714.06964,380.90274,720.97626C384.27948,730.016,389.18707,738.3069,395.55975,745.7345C399.69586,750.55994,404.98584,755.40497,410.08752,759.0422C414.92877,762.49664,419.35196,765.03265,424.70352,767.4183C430.53604,770.01294,436.4307,771.86414,442.68558,773.0504C446.70822,773.8163,451.1325,774.3075,455.07648,774.4247L455.77722,774.44727L455.98907,780.25995L456.20123,786.0794L454.43274,786.1441C453.08234,786.19293,452.56927,786.2392,452.26367,786.32574C450.8714,786.73346,449.74573,787.8588,449.33636,789.2463C449.17096,789.7946,449.1717,789.81525,449.2318,792.02997C449.263,793.2575,450.1938,819.7375,451.28748,850.87946C453.03876,900.43964,453.29828,907.5618,453.4026,907.9766C453.5473,908.5616,454.00446,909.42365,454.4043,909.8482C454.78296,910.2531,455.34613,910.6445,455.90375,910.87787C456.36746,911.0772,456.51434,911.1748,457.78314,911.1748C459.01367,911.1748,461.29947,911.083,465.95297,910.9032L474.56842,910.5686L475.02124,910.37366C475.6969,910.0814,476.17865,909.7412,476.64026,909.22327C477.10214,908.7057,477.3478,908.2919,477.57712,907.61755L477.7319,907.15906L477.37796,896.12134C477.17703,890.0471,476.24115,863.4297,475.29028,836.9637L473.56415,788.84406L473.39,788.3974C472.89746,787.12494,471.90277,786.2,470.59015,785.7745C470.2645,785.6686,470.12686,785.6305,469.5341,785.6305C469.22906,785.6305,468.80356,785.64056,468.16992,785.6567L466.2564,785.69904L466.28204,785.08026C466.28998,784.7369,466.2151,782.11786,466.11115,779.2663L465.92224,774.0844L467.13934,773.95746C468.54114,773.8172,470.25494,773.5695,472.37616,773.1967C473.8288,772.9449,474.2375,772.8614,476.25964,772.4102C481.9311,771.14655,488.05762,769.0014,493.54132,766.3582C494.86377,765.7266,498.12946,763.9878,499.19757,763.35864C500.4474,762.6199,500.8501,762.3717,501.615,761.89075C512.6989,754.8977,522.0082,745.34766,528.6892,734.1223C531.3148,729.70264,533.5714,724.94617,535.32404,720.119C538.1244,712.39856,539.75446,704.20557,540.1233,696.0586C540.3229,691.55554,540.15027,686.81915,539.6193,682.41815C537.69336,666.297,530.9749,651.07153,520.3319,638.7134C513.8743,631.2133,506.1012,624.9008,497.54205,620.1886C490.5028,616.3131,483.5504,613.6907,475.51547,611.8695C473.7368,611.4677,470.77365,610.958,468.61514,610.67957C467.18753,610.4915,466.4987,610.42053,464.2742,610.2134C462.73065,610.06976,460.36594,609.99695,457.97116,609.99695 Z"/>
</g>
<g style="fill:rgb(255,177,147); fill-opacity:1.0; stroke-linejoin: miter">
<path d="M452.1997,846.4517Q450.31088,846.4517,448.1693,847.2868Q441.03265,851.07733,438.16266,865.2369Q435.18317,879.09247,433.92657,909.8909L474.75656,923.3906L464.73843,895.37976Q465.01755,882.16406,464.40533,870.5867Q463.59113,861.4973,463.1247,860.2377Q462.50537,857.14185,461.55585,854.6531Q458.11905,846.4517,452.1997,846.4517 Z"/>
</g>
</g>
</g>
</svg>