<?xml version="1.0" encoding="utf-8"?>
<svg xmlns="http://www.w3.org/2000/svg" xmlns:xlink="http://www.w3.org/1999/xlink" version= "1.1" width="1162px" height="830px" viewBox="-221 297 1162 830">
<g id="layer1">
<g style="fill:rgb(0,174,199); fill-opacity:1.0; stroke-linejoin: miter">
<path d="M951.5167,297.89243L-235.206,297.89496L-234.71945,1132.241L951.5072,1132.2388L951.5167,297.89243 Z"/>
</g>
<g style="fill:rgb(0,0,0); fill-opacity:1.0; stroke-linejoin: miter">
<path d="M951.5167,297.89246L945.90784,297.89346Q769.6021,787.34436,581.0466,938.8456Q445.5597,1039.0275,293.3599,1076.9462Q169.6069,1116.7645,-151.61397,1132.2408L951.5072,1132.2388L951.5167,297.89246 Z"/>
</g>
<g style="fill:rgb(0,0,0); fill-opacity:1.0; stroke-linejoin: miter">
<path d="M280.74658,847.6411L297.9955,841.5144L316.52625,816.09143L322.40283,822.458L310.2097,853.3074L280.77512,864.0099L280.74658,847.6411"/>
</g>
<g style="fill:rgb(0,0,0); fill-opacity:1.0; stroke-linejoin: miter">
<path d="M287.95728,876.7052L302.38663,861.43384L324.5989,829.9867L329.35938,836.3257L304.8595,884.8181L287.11264,891.78455L287.95728,876.7052"/>
</g>
<g style="fill:rgb(0,0,0); fill-opacity:1.0; stroke-linejoin: miter">
<path d="M200.12007,1077.5695L175.93022,1083.0004L158.62492,1088.0848L154.65881,1079.2894Q155.96954,1079.1577,158.60101,1077.0365L171.36208,1066.29Q174.47327,1063.741,177.23172,1061.8291Q183.28867,1057.719,188.77505,1056.7773L189.65103,1056.5841Q192.57289,1058.1853,195.13011,1059.9794Q197.61398,1061.6438,199.2971,1064.4067Q201.48296,1068.1779,200.12007,1077.5695"/>
</g>
<g style="fill:rgb(0,0,0); fill-opacity:1.0; stroke-linejoin: miter">
<path d="M389.00656,1017.2788L404.04584,1015.8318L419.31305,1006.27783L425.07663,1013.04785L415.3446,1022.88086L403.98584,1029.593L400.2402,1039.6605L389.09467,1047.7609Q380.00073,1039.226,377.9192,1036.3932Q374.8673,1032.8049,374.93274,1029.3743Q374.93213,1028.4303,375.46002,1026.4683L382.98016,1028.4305L389.00656,1017.2788"/>
</g>
<g style="fill:rgb(0,0,0); fill-opacity:1.0; stroke-linejoin: miter">
<path d="M389.574,1017.36584L389.55658,1018.1964Q389.64456,1025.5704,387.55463,1028.6793Q384.38535,1032.3849,379.05667,1031.147Q377.915,1030.7623,377.04938,1030.075Q375.94235,1029.2437,374.422,1027.2288L373.27997,1026.2871Q367.02463,1021.0758,362.6574,1018.20886Q360.16592,1016.56433,357.49564,1015.13306L346.9513,1009.604Q343.90933,1007.7866,343.40598,1007.36304Q338.42932,1003.80493,332.863,997.71423Q340.15503,989.5791,342.0821,986.1835Q344.46753,982.23755,345.34622,976.9807Q354.7508,983.00916,359.49753,987.85364Q361.5599,990.02686,363.12527,992.3804L369.0901,1001.708Q370.2195,1003.4535,373.70844,1006.82043Q381.6095,1013.6979,389.574,1017.36584"/>
</g>
<g style="fill:rgb(0,0,0); fill-opacity:1.0; stroke-linejoin: miter">
<path d="M347.5849,968.29614L345.94733,982.1006C341.60242,990.42664,338.0279,996.34204,335.26422,999.8784C332.98874,1002.79016,330.52185,1004.61,327.79324,1005.16736C326.86536,1005.35693,325.97922,1005.4038,325.33865,1005.04114C322.36584,1003.35803,320.70392,1002.4678,320.12686,1002.7505L308.42838,1005.2694C306.78445,1005.6444,303.70807,1005.671,299.22952,1005.0952C293.58923,1004.37,285.1619,1001.95496,273.91293,998.1039C269.4714,999.9459,265.96732,1001.0499,263.42642,1001.552C260.9262,1002.046,256.87076,1002.43604,251.23206,1002.5867L235.6976,1005.2794C234.30655,1019.9175,231.43657,1032.4781,227.39606,1043.0804C226.10931,1046.457,223.67567,1053.7756,218.68822,1064.4325C214.70319,1072.9476,210.19203,1079.9836,206.2313,1086.0721L193.61096,1081.3407C197.22229,1076.3148,198.11531,1072.4882,196.98857,1069.559C195.95314,1066.8673,191.83597,1062.3121,183.91553,1056.1357C187.13478,1054.934,189.40143,1053.5212,190.87222,1052.0483C192.59204,1050.326,193.99205,1047.5992,194.72946,1043.6738C195.87982,1037.5507,197.40594,1027.3068,195.34412,1013.38367C193.86768,1003.4137,191.6765,996.3373,192.27924,991.17993C192.87053,986.1201,195.48993,978.18787,200.71397,967.4398L213.56892,944.92004L259.33322,948.0137C262.1662,951.0758,262.70538,954.83154,260.951,959.28076C283.436,955.22485,303.41937,953.5012,320.87787,954.53235C324.97476,954.7743,328.2321,955.80286,330.79514,956.954C333.20566,958.03674,335.71173,960.2106,338.20804,963.7212L347.5849,968.29614 Z"/>
</g>
<g style="fill:rgb(0,0,0); fill-opacity:1.0; stroke-linejoin: miter">
<path d="M200.8196,960.99854C205.92537,952.57227,210.75323,937.2023,212.88898,929.5597C214.10406,925.2117,215.03389,920.3334,215.76996,914.9315C216.14693,912.16504,216.92702,903.9763,218.28876,890.37646C218.91618,884.1102,219.57341,880.5846,219.7531,879.7169C221.0323,873.53894,222.7704,869.2085,224.9423,866.57385C226.83215,864.28125,229.64833,862.1688,233.62338,860.4215C235.78157,856.9662,237.54474,854.827,238.83908,853.8976C241.04575,852.31323,242.89276,851.25696,244.45622,850.83325C244.82472,849.75256,257.95953,847.87085,283.8607,845.188L285.89005,862.167L270.9603,867.32776L267.591,883.46643C271.50928,890.96045,272.78107,896.8556,272.12634,901.2787C271.49896,905.51746,271.76007,911.60767,267.79962,927.6682C265.6595,936.3468,261.41748,975.43506,266.4844,978.45325L188.28764,990.51904 Z"/>
</g>
<g style="fill:rgb(0,0,0); fill-opacity:1.0; stroke-linejoin: miter">
<path d="M266.48352,876.52026L267.53973,876.1985Q274.46112,873.98706,278.64822,873.749Q282.41315,873.44495,288.75555,875.3761L291.84634,890.4806Q286.56967,893.62244,283.26578,895.199Q280.43295,896.5602,277.6702,897.3733Q274.4454,898.3331,269.46356,899.177L266.48352,876.52026"/>
</g>
<g style="fill:rgb(0,0,0); fill-opacity:1.0; stroke-linejoin: miter">
<path d="M270.54977,875.1764L270.55212,872.4448L270.5544,869.71326Q240.65714,907.2715,210.75972,944.8292Q213.4454,946.63306,216.13107,948.4369L270.54977,875.1764"/>
</g>
<g style="fill:rgb(0,0,0); fill-opacity:1.0; stroke-linejoin: miter">
<path d="M646.58264,814.06067L645.07587,836.458Q634.36346,904.14465,582.3867,944.72656Q530.0504,985.27563,459.1276,977.61145Q391.441,966.89905,350.8592,914.9225Q337.85632,898.12134,329.43845,878.3086L322.3634,857.9396Q316.53296,836.916,316.46738,814.0608Q318.23734,743.92163,364.81165,697.34717Q411.386,650.77295,481.52496,649.00305Q551.6641,650.77295,598.2384,697.3473Q644.8128,743.92163,646.58264,814.06067"/>
</g>
<g style="fill:rgb(15,59,82); fill-opacity:0.99607843; stroke-linejoin: miter">
<path d="M272.54944,707.5978L272.54944,707.5978L272.54935,707.59814L272.54944,707.5978L272.54944,707.5978L272.54944,707.5978L272.54935,707.59814Q272.54944,707.5978,272.54944,707.5978"/>
</g>
<g style="fill:rgb(0,0,0); fill-opacity:1.0; stroke-linejoin: miter">
<path d="M228.97401,811.14685Q223.54852,813.734,221.72136,818.08167Q221.3523,818.5526,219.45505,825.0713Q216.24202,831.82336,216.28337,832.6216Q215.5438,835.652,216.63225,838.7501Q220.44942,848.7234,231.46425,857.4852Q233.81331,859.328,236.55028,861.13184L245.69543,861.5243Q253.18149,846.04846,254.13654,838.1627Q254.72052,834.2223,254.31366,829.53955Q254.18524,826.8429,252.32578,817.26294Q252.09772,815.76807,252.05615,814.4542Q251.89975,811.37805,253.29578,808.47986Q250.3851,805.8141,244.73634,806.5687Q236.15562,807.723,228.99756,811.1356"/>
</g>
<g style="fill:rgb(0,0,0); fill-opacity:1.0; stroke-linejoin: miter">
<path d="M251.20746,813.9164Q246.27328,819.1537,246.53355,821.3314Q246.46346,823.17236,249.48172,825.9768L248.39206,831.1212L251.47925,836.7947L249.07803,838.9452Q244.4741,835.7162,243.04062,835.46375Q241.29243,835.0608,240.42227,836.93384Q239.35495,839.1842,239.83598,841.20984Q240.05856,842.5375,242.79153,845.2356Q243.1442,845.84644,243.11462,846.7549Q243.3327,848.21045,240.0261,858.84436L264.7354,862.9508L267.58218,854.44336L270.9066,850.1564Q276.42664,847.90454,276.657,846.3108Q277.24225,844.8013,272.78967,841.14465Q272.55225,838.0426,271.90396,837.396Q271.25742,836.54126,269.052,836.7434Q270.9048,835.10486,270.69427,834.1543Q270.65775,833.1476,268.28162,830.9553Q271.564,828.20654,270.6299,827.36414Q270.2686,826.8644,268.81174,826.3633L261.81885,824.3091L260.67615,823.04456Q260.0972,820.8368,258.4431,819.3085Q256.9331,817.7678,251.23267,813.9336"/>
</g>
<g style="fill:rgb(250,87,87); fill-opacity:0.07450981; stroke-linejoin: miter">
<path d="M256.92166,850.2721L264.3537,862.9624L270.20148,850.4053Q265.18185,851.3187,262.65686,851.2516Q260.26727,851.229,256.9346,850.276"/>
</g>
<g style="fill:rgb(0,0,0); fill-opacity:0.99607843; stroke-linejoin: miter">
<path d="M258.0979,815.7163L258.0979,815.7163L258.09863,815.71716L258.0979,815.7163"/>
</g>
<g style="fill:rgb(0,0,0); fill-opacity:0.99607843; stroke-linejoin: miter">
<path d="M180.4889,806.1228L180.48874,806.1228L180.48882,806.12317L180.4889,806.1228"/>
</g>
<g style="fill:rgb(0,0,0); fill-opacity:1.0; stroke-linejoin: miter">
<path d="M156.85841,1077.0679L156.76369,1077.6146Q156.00366,1081.2434,157.04083,1082.9332Q157.85147,1084.4932,162.54375,1085.997L156.38087,1092.1626Q156.58089,1095.7816,154.13312,1098.1683Q153.9714,1098.4376,151.9845,1099.7367L145.47337,1103.4475Q143.4626,1104.8634,143.29907,1105.1836Q142.9017,1105.4618,142.06577,1107.0753L140.60335,1111.3927Q140.28041,1112.175,139.76747,1113.0027Q139.22482,1113.8613,138.52408,1114.641Q136.55475,1116.6556,135.96721,1117.0125Q128.78534,1122.2518,124.90224,1119.708Q122.43506,1117.9028,121.39775,1114.3907Q121.12793,1113.8392,120.70221,1110.9998Q120.46649,1108.761,120.84354,1106.82Q121.57837,1103.085,124.98648,1098.8904Q129.6257,1092.9237,136.95285,1086.6252Q141.18423,1083.099,145.19781,1081.1213Q149.86668,1078.7943,156.85841,1077.0679"/>
</g>
</g>
<g id="layer2">
<g style="fill:rgb(215,237,249); fill-opacity:1.0; stroke-linejoin: miter">
<path d="M502.79965,460.0729C502.24237,457.99332,501.9765,455.84952,502.0089,453.67703C502.2036,440.8334,512.81104,430.54214,525.6552,430.73706C530.9982,430.8166,536.1897,432.75125,540.2734,436.1832C543.9053,439.23453,546.5308,443.34775,547.77374,447.88815C556.3808,447.21475,564.0689,452.78604,566.37665,460.7828C567.6821,460.50632,569.0143,460.37625,570.35486,460.397C580.23975,460.5473,588.1612,468.65262,588.0115,478.5371C587.86145,488.423,579.6987,496.2849,569.81354,496.13544L507.2265,495.18903C497.3414,495.03906,489.42096,486.93243,489.5708,477.0479C489.69275,468.96088,495.15024,462.13025,502.79965,460.0729 Z"/>
</g>
<g style="fill:rgb(215,237,249); fill-opacity:1.0; stroke-linejoin: miter">
<path d="M68.07463,594.944C68.63191,592.8644,68.89778,590.7206,68.86537,588.5481C68.67066,575.70447,58.063236,565.4132,45.219055,565.6081C39.876038,565.6876,34.684574,567.6223,30.600895,571.0542C26.969002,574.1056,24.343452,578.21875,23.100534,582.75916C14.493475,582.0858,6.8053675,587.6571,4.4976315,595.6538C3.1921506,595.3773,1.859997,595.2473,0.5194207,595.26807C-9.365464,595.41833,-17.286913,603.52374,-17.137186,613.4082C-16.987154,623.2941,-8.824433,631.15594,1.0607568,631.0065L63.647797,630.06006C73.5329,629.9101,81.45333,621.80347,81.30349,611.91895C81.18153,603.8319,75.724045,597.0013,68.07463,594.944 Z"/>
</g>
</g>
</svg>