<?xml version="1.0" encoding="utf-8"?>
<svg xmlns="http://www.w3.org/2000/svg" xmlns:xlink="http://www.w3.org/1999/xlink" version= "1.1" width="468px" height="335px" viewBox="218 950 468 335">
<g id="layer1">
<g style="fill:rgb(0,174,199); fill-opacity:1.0; stroke-linejoin: miter">
<path d="M217.999,949.7173C217.92427,949.7173,217.8526,949.74695,217.79976,949.7998C217.74692,949.85266,217.71724,949.9243,217.71724,949.999L217.71825,1285.0C217.71825,1285.1556,217.84439,1285.2817,218.0,1285.2817L686.001,1285.2827C686.0757,1285.2827,686.14734,1285.253,686.2002,1285.2002C686.25305,1285.1473,686.2827,1285.0757,686.2827,1285.001L686.28174,950.0C686.28174,949.8444,686.1556,949.71826,686.0,949.71826L217.999,949.7173 Z"/>
</g>
<g style="fill:rgb(0,0,0); fill-opacity:0.40392157; stroke-linejoin: miter">
<path d="M639.08765,1238.0747L637.4135,1238.2014Q632.1236,1238.3723,617.77734,1238.5127L610.0382,1238.5807Q601.73315,1238.6471,591.16394,1238.7059Q580.5948,1238.7646,567.7615,1238.8157Q541.9175,1238.9182,511.99408,1238.9664Q497.03247,1238.9905,481.051,1239.001Q473.69766,1239.0148,430.81204,1239.0024Q414.09995,1238.989,398.87497,1238.964Q390.33298,1238.9586,356.5462,1238.8628Q330.55777,1238.778,310.51807,1238.647Q265.77643,1238.33,273.35785,1237.988Q276.69016,1237.8176,289.85577,1237.6738Q296.4386,1237.602,305.47968,1237.5364Q308.60947,1237.499,337.8429,1237.3568Q386.42642,1237.1469,455.69705,1237.1381Q473.01468,1237.1403,489.03937,1237.155Q527.96985,1237.203,534.20447,1237.2277Q562.3749,1237.2947,585.3738,1237.4124Q608.3725,1237.5297,621.5381,1237.6736Q635.84406,1237.8591,635.7553,1237.9043Q638.6506,1237.9863,639.08765,1238.0747"/>
</g>
<g>
<g style="fill:rgb(48,78,74); fill-opacity:1.0; stroke-linejoin: miter">
<path d="M586.4894,1165.7108C591.3661,1165.7108,595.27966,1161.5055,594.79395,1156.5309C594.3709,1152.1957,590.4732,1149.0192,586.1174,1149.0192L526.7811,1149.0204C525.91516,1149.0192,525.21326,1148.3173,525.21326,1147.4513L525.21326,1147.4515C525.21326,1146.5853,525.91516,1145.8837,526.7811,1145.8837L586.0087,1145.8839C592.29565,1145.8837,597.77795,1150.7286,597.96655,1157.0128C598.1616,1163.515,592.9483,1168.8478,586.4903,1168.8479L526.7812,1168.8489C525.91516,1168.8477,525.21326,1168.1455,525.21326,1167.2795L525.21326,1167.2786C525.2132,1166.413,525.9151,1165.7108,526.7811,1165.7108L586.4894,1165.7113 Z"/>
</g>
<g style="fill:rgb(235,240,243); fill-opacity:1.0; stroke-linejoin: miter">
<path d="M594.79395,1156.5314C595.27985,1161.5055,591.3661,1165.711,586.4894,1165.7108L527.0787,1165.7108C529.6681,1160.1469,529.66815,1154.5834,527.0787,1149.0192L586.1173,1149.0197C590.4735,1149.0197,594.3709,1152.1957,594.79395,1156.5314 Z"/>
</g>
<g style="fill:rgb(225,230,233); fill-opacity:1.0; stroke-linejoin: miter">
<path d="M589.6709,1152.8268L528.429,1152.8268C528.3731,1152.6061,528.30035,1152.3856,528.2366,1152.1654L589.6709,1152.1659L589.6709,1152.8268 Z"/>
</g>
<g style="fill:rgb(225,230,233); fill-opacity:1.0; stroke-linejoin: miter">
<path d="M589.6709,1155.2609L528.8965,1155.2614C528.87024,1155.0399,528.8147,1154.8192,528.7808,1154.599L589.6709,1154.5995L589.6709,1155.2609 Z"/>
</g>
<g style="fill:rgb(225,230,233); fill-opacity:1.0; stroke-linejoin: miter">
<path d="M589.6709,1157.6959L529.0017,1157.6959C529.006,1157.475,529.006,1157.2545,529.0017,1157.0343L589.6709,1157.0348L589.6709,1157.6959 Z"/>
</g>
<g style="fill:rgb(225,230,233); fill-opacity:1.0; stroke-linejoin: miter">
<path d="M589.6709,1160.1312L528.7808,1160.1322C528.8147,1159.9103,528.87024,1159.6898,528.8965,1159.4694L589.6709,1159.4698L589.6709,1160.1312 Z"/>
</g>
<g style="fill:rgb(225,230,233); fill-opacity:1.0; stroke-linejoin: miter">
<path d="M589.6709,1162.5653L528.2365,1162.5648C528.3005,1162.3441,528.3731,1162.1237,528.429,1161.9037L589.6709,1161.9049L589.6709,1162.5653 Z"/>
</g>
<g style="fill:rgb(136,70,54); fill-opacity:1.0; stroke-linejoin: miter">
<path d="M534.18274,1188.8208C529.30585,1188.8206,525.3924,1184.6152,525.878,1179.6406C526.301,1175.3052,530.19885,1172.1292,534.55475,1172.1294L593.8908,1172.1295C594.7568,1172.129,595.4588,1171.4269,595.4588,1170.5614L595.4588,1170.5616C595.4588,1169.6954,594.7568,1168.9933,593.8908,1168.9933L534.6634,1168.9937C528.37634,1168.9937,522.8941,1173.8384,522.7055,1180.1223C522.51044,1186.625,527.72363,1191.9573,534.1818,1191.9575L593.8908,1191.9583C594.75684,1191.9573,595.4588,1191.2551,595.4588,1190.3894L595.4588,1190.3882C595.4588,1189.5225,594.75684,1188.8206,593.8908,1188.8206L534.18274,1188.821 Z"/>
</g>
<g style="fill:rgb(235,240,243); fill-opacity:1.0; stroke-linejoin: miter">
<path d="M525.878,1179.6409C525.3922,1184.6152,529.30585,1188.8206,534.18274,1188.8208L593.5933,1188.8208C591.00385,1183.2566,591.00385,1177.6929,593.5933,1172.1293L534.5548,1172.1296C530.1985,1172.1294,526.301,1175.3052,525.878,1179.6409 Z"/>
</g>
<g style="fill:rgb(225,230,233); fill-opacity:1.0; stroke-linejoin: miter">
<path d="M531.00116,1175.9368L592.243,1175.9379C592.2988,1175.716,592.3716,1175.4955,592.43536,1175.2753L531.00116,1175.2754L531.00116,1175.9368 Z"/>
</g>
<g style="fill:rgb(225,230,233); fill-opacity:1.0; stroke-linejoin: miter">
<path d="M531.00116,1178.3708L591.7755,1178.3704C591.80176,1178.1497,591.8572,1177.9292,591.8911,1177.7087L531.00116,1177.7092L531.00116,1178.3708 Z"/>
</g>
<g style="fill:rgb(225,230,233); fill-opacity:1.0; stroke-linejoin: miter">
<path d="M531.00116,1180.8059L591.6702,1180.8059C591.666,1180.585,591.666,1180.3643,591.6702,1180.144L531.00116,1180.1445L531.00116,1180.8059 Z"/>
</g>
<g style="fill:rgb(225,230,233); fill-opacity:1.0; stroke-linejoin: miter">
<path d="M531.00116,1183.2407L591.8911,1183.2415C591.8572,1183.02,591.80176,1182.7991,591.7755,1182.5791L531.00116,1182.5796L531.00116,1183.2407 Z"/>
</g>
<g style="fill:rgb(225,230,233); fill-opacity:1.0; stroke-linejoin: miter">
<path d="M531.00116,1185.675L592.4354,1185.676C592.3714,1185.4541,592.2988,1185.2334,592.243,1185.0134L531.00116,1185.0137L531.00116,1185.675 Z"/>
</g>
<g style="fill:rgb(83,93,102); fill-opacity:1.0; stroke-linejoin: miter">
<path d="M534.8596,1211.5564C529.98285,1211.5566,526.0692,1207.3511,526.55493,1202.3765C526.97797,1198.0413,530.87573,1194.8647,535.2316,1194.8649L594.56775,1194.8655C595.4337,1194.8647,596.1357,1194.1626,596.1357,1193.2969L596.1357,1193.2971C596.1357,1192.4309,595.4337,1191.729,594.56775,1191.729L535.3402,1191.7296C529.0532,1191.7295,523.5709,1196.5742,523.38245,1202.8582C523.18726,1209.3608,528.4006,1214.6931,534.8587,1214.6934L594.5679,1214.6945C595.4339,1214.6932,596.1358,1213.9913,596.1358,1213.1251L596.1358,1213.1241C596.1358,1212.2582,595.4339,1211.5565,594.5679,1211.5565L534.8596,1211.5569 Z"/>
</g>
<g style="fill:rgb(235,240,243); fill-opacity:1.0; stroke-linejoin: miter">
<path d="M526.55493,1202.3765C526.0691,1207.3511,529.98285,1211.5566,534.8596,1211.5566L594.2703,1211.5577C591.68085,1205.9926,591.68085,1200.4288,594.2702,1194.8647L535.2317,1194.8654C530.8754,1194.8655,526.97797,1198.0413,526.55493,1202.3765 Z"/>
</g>
<g style="fill:rgb(225,230,233); fill-opacity:1.0; stroke-linejoin: miter">
<path d="M531.67804,1198.6726L592.92,1198.6722C592.9758,1198.4518,593.0486,1198.2313,593.1124,1198.0111L531.67804,1198.0112L531.67804,1198.6726 Z"/>
</g>
<g style="fill:rgb(225,230,233); fill-opacity:1.0; stroke-linejoin: miter">
<path d="M531.67804,1201.1064L592.4526,1201.1073C592.47876,1200.8856,592.53424,1200.6649,592.5682,1200.4447L531.67804,1200.4453L531.67804,1201.1064 Z"/>
</g>
<g style="fill:rgb(225,230,233); fill-opacity:1.0; stroke-linejoin: miter">
<path d="M531.67804,1203.5415L592.3472,1203.5424C592.34296,1203.3207,592.34296,1203.1002,592.3472,1202.88L531.67804,1202.8801L531.67804,1203.5415 Z"/>
</g>
<g style="fill:rgb(225,230,233); fill-opacity:1.0; stroke-linejoin: miter">
<path d="M531.67804,1205.9766L592.5682,1205.9779C592.53424,1205.756,592.47876,1205.535,592.4526,1205.3153L531.67804,1205.3154L531.67804,1205.9766 Z"/>
</g>
<g style="fill:rgb(225,230,233); fill-opacity:1.0; stroke-linejoin: miter">
<path d="M531.67804,1208.4109L593.1124,1208.4105C593.0485,1208.1898,592.9758,1207.9694,592.92,1207.7491L531.67804,1207.7495L531.67804,1208.4109 Z"/>
</g>
<g style="fill:rgb(129,198,101); fill-opacity:1.0; stroke-linejoin: miter">
<path d="M587.7307,1234.5532C592.6075,1234.5531,596.5211,1230.348,596.0354,1225.3734C595.61237,1221.038,591.71466,1217.8619,587.3587,1217.8617L528.02246,1217.862C527.1565,1217.8616,526.4546,1217.1597,526.4546,1216.294L526.4546,1216.2952C526.4546,1215.428,527.1565,1214.7261,528.02246,1214.7261L587.2501,1214.7264C593.5372,1214.7264,599.0194,1219.5712,599.2079,1225.8551C599.40295,1232.3575,594.18976,1237.6903,587.7316,1237.6902L528.02246,1237.691C527.1565,1237.6903,526.4546,1236.9882,526.4546,1236.1222L526.4546,1236.1212C526.4546,1235.2555,527.1565,1234.5536,528.02246,1234.5536L587.7307,1234.5547 Z"/>
</g>
<g style="fill:rgb(235,240,243); fill-opacity:1.0; stroke-linejoin: miter">
<path d="M596.0354,1225.3734C596.52124,1230.348,592.6075,1234.5533,587.7307,1234.5532L528.32,1234.5536C530.9095,1228.9896,530.9095,1223.4258,528.32,1217.862L587.35864,1217.8622C591.71497,1217.8622,595.61237,1221.038,596.0354,1225.3734 Z"/>
</g>
<g style="fill:rgb(225,230,233); fill-opacity:1.0; stroke-linejoin: miter">
<path d="M590.91235,1221.6693L529.67035,1221.6707C529.6145,1221.4487,529.5417,1221.2283,529.47797,1221.008L590.91235,1221.0082L590.91235,1221.6693 Z"/>
</g>
<g style="fill:rgb(225,230,233); fill-opacity:1.0; stroke-linejoin: miter">
<path d="M590.91235,1224.1034L530.1378,1224.1038C530.1117,1223.8826,530.0561,1223.6621,530.0222,1223.4414L590.91235,1223.4418L590.91235,1224.1034 Z"/>
</g>
<g style="fill:rgb(225,230,233); fill-opacity:1.0; stroke-linejoin: miter">
<path d="M590.9123,1226.5382L530.243,1226.5387C530.2474,1226.318,530.2474,1226.0975,530.243,1225.8768L590.9123,1225.8771L590.9123,1226.5382 Z"/>
</g>
<g style="fill:rgb(225,230,233); fill-opacity:1.0; stroke-linejoin: miter">
<path d="M590.9123,1228.9735L530.0222,1228.9747C530.0561,1228.7533,530.1117,1228.5321,530.1378,1228.3121L590.9123,1228.3131L590.9123,1228.9735 Z"/>
</g>
<g style="fill:rgb(225,230,233); fill-opacity:1.0; stroke-linejoin: miter">
<path d="M590.9123,1231.4076L529.47784,1231.4083C529.5419,1231.1871,529.6145,1230.9667,529.67035,1230.746L590.9123,1230.7465L590.9123,1231.4076 Z"/>
</g>
</g>
<g>
<g style="fill:rgb(48,78,74); fill-opacity:1.0; stroke-linejoin: miter">
<path d="M509.6942,1234.5529C514.57104,1234.5529,518.48456,1230.3478,517.9989,1225.3732C517.57587,1221.038,513.6782,1217.8615,509.32227,1217.8615L449.98608,1217.8624C449.12006,1217.8615,448.41815,1217.1593,448.41815,1216.2936L448.41815,1216.2938C448.41815,1215.4276,449.12006,1214.726,449.98608,1214.726L509.21362,1214.7262C515.5007,1214.726,520.9829,1219.5709,521.1715,1225.8551C521.3666,1232.3573,516.1532,1237.6898,509.69507,1237.6898L449.98605,1237.6912C449.12006,1237.69,448.41812,1236.9875,448.41812,1236.1218L448.41812,1236.1208C448.41812,1235.2551,449.12006,1234.5532,449.98605,1234.5532L509.6942,1234.5536 Z"/>
</g>
<g style="fill:rgb(235,240,243); fill-opacity:1.0; stroke-linejoin: miter">
<path d="M517.9989,1225.3734C518.4848,1230.3478,514.57104,1234.5533,509.6942,1234.5529L450.28363,1234.5532C452.87308,1228.9893,452.87308,1223.4254,450.28357,1217.8615L509.3222,1217.8617C513.67847,1217.8617,517.57587,1221.038,517.9989,1225.3734 Z"/>
</g>
<g style="fill:rgb(225,230,233); fill-opacity:1.0; stroke-linejoin: miter">
<path d="M512.8759,1221.6691L451.63388,1221.6691C451.57803,1221.4484,451.50522,1221.2279,451.4415,1221.0077L512.8759,1221.0082L512.8759,1221.6691 Z"/>
</g>
<g style="fill:rgb(225,230,233); fill-opacity:1.0; stroke-linejoin: miter">
<path d="M512.8759,1224.1031L452.10138,1224.1036C452.07513,1223.8822,452.01965,1223.6615,451.98572,1223.4413L512.8759,1223.4415L512.8759,1224.1031 Z"/>
</g>
<g style="fill:rgb(225,230,233); fill-opacity:1.0; stroke-linejoin: miter">
<path d="M512.87585,1226.5382L452.2067,1226.5383C452.21097,1226.3174,452.21097,1226.0969,452.2067,1225.8767L512.87585,1225.8768L512.87585,1226.5382 Z"/>
</g>
<g style="fill:rgb(225,230,233); fill-opacity:1.0; stroke-linejoin: miter">
<path d="M512.87585,1228.9735L451.98578,1228.9746C452.01965,1228.7527,452.0752,1228.5322,452.10144,1228.3115L512.87585,1228.3121L512.87585,1228.9735 Z"/>
</g>
<g style="fill:rgb(225,230,233); fill-opacity:1.0; stroke-linejoin: miter">
<path d="M512.87585,1231.4076L451.44144,1231.4072C451.5054,1231.1865,451.5781,1230.9661,451.63394,1230.7461L512.87585,1230.7472L512.87585,1231.4076 Z"/>
</g>
<g style="fill:rgb(99,76,60); fill-opacity:1.0; stroke-linejoin: miter">
<path d="M456.4659,1211.9584C451.58908,1211.9581,447.6756,1207.753,448.16122,1202.7784C448.58435,1198.443,452.48206,1195.2667,456.83798,1195.2666L516.17413,1195.2678C517.0401,1195.2666,517.74207,1194.5647,517.74207,1193.6987L517.74207,1193.699C517.74207,1192.8328,517.0401,1192.1311,516.17413,1192.1311L456.94656,1192.1313C450.6596,1192.1312,445.1773,1196.9762,444.98865,1203.2601C444.7936,1209.7626,450.00687,1215.0951,456.46512,1215.0953L516.17426,1215.0963C517.0403,1215.0953,517.7422,1214.393,517.7422,1213.527L517.7422,1213.5262C517.7422,1212.6605,517.0403,1211.9586,516.17426,1211.9586L456.4659,1211.9589 Z"/>
</g>
<g style="fill:rgb(235,240,243); fill-opacity:1.0; stroke-linejoin: miter">
<path d="M448.16122,1202.7787C447.67538,1207.753,451.58908,1211.9584,456.4659,1211.9584L515.8767,1211.9586C513.28723,1206.3944,513.28723,1200.8309,515.87665,1195.2666L456.83804,1195.2671C452.48178,1195.267,448.58435,1198.443,448.16122,1202.7787 Z"/>
</g>
<g style="fill:rgb(225,230,233); fill-opacity:1.0; stroke-linejoin: miter">
<path d="M453.2844,1199.0741L514.52637,1199.0746C514.5822,1198.8539,514.655,1198.6332,514.71875,1198.413L453.2844,1198.4132L453.2844,1199.0741 Z"/>
</g>
<g style="fill:rgb(225,230,233); fill-opacity:1.0; stroke-linejoin: miter">
<path d="M453.28433,1201.5084L514.0589,1201.5089C514.0851,1201.2877,514.14056,1201.0668,514.1745,1200.8466L453.28433,1200.8468L453.28433,1201.5084 Z"/>
</g>
<g style="fill:rgb(225,230,233); fill-opacity:1.0; stroke-linejoin: miter">
<path d="M453.28433,1203.9432L513.9536,1203.9437C513.94934,1203.7225,513.94934,1203.5021,513.9536,1203.2819L453.28433,1203.2821L453.28433,1203.9432 Z"/>
</g>
<g style="fill:rgb(225,230,233); fill-opacity:1.0; stroke-linejoin: miter">
<path d="M453.28433,1206.3785L514.1745,1206.3798C514.1406,1206.1578,514.0851,1205.9374,514.0589,1205.7169L453.28433,1205.7174L453.28433,1206.3785 Z"/>
</g>
<g style="fill:rgb(225,230,233); fill-opacity:1.0; stroke-linejoin: miter">
<path d="M453.28433,1208.8126L514.7189,1208.8126C514.6549,1208.5917,514.5822,1208.3712,514.52637,1208.1512L453.28433,1208.1525L453.28433,1208.8126 Z"/>
</g>
<g style="fill:rgb(13,106,172); fill-opacity:1.0; stroke-linejoin: miter">
<path d="M510.7331,1189.2844C515.6099,1189.2844,519.5235,1185.0793,519.0378,1180.1047C518.6147,1175.7693,514.717,1172.593,510.36102,1172.593L451.02493,1172.5941C450.15894,1172.5929,449.457,1171.891,449.457,1171.025L449.457,1171.0253C449.457,1170.159,450.15894,1169.4574,451.02493,1169.4574L510.25238,1169.4578C516.5394,1169.4575,522.0217,1174.3025,522.21045,1180.5864C522.40546,1187.0889,517.19214,1192.4214,510.73395,1192.4214L451.02487,1192.4225C450.15884,1192.4213,449.45694,1191.7191,449.45694,1190.8531L449.45694,1190.8524C449.45694,1189.9867,450.15884,1189.2848,451.02487,1189.2848L510.7331,1189.2849 Z"/>
</g>
<g style="fill:rgb(235,240,243); fill-opacity:1.0; stroke-linejoin: miter">
<path d="M519.0378,1180.105C519.5237,1185.0793,515.6099,1189.2847,510.7331,1189.2844L451.32242,1189.2848C453.91183,1183.7207,453.91183,1178.157,451.32242,1172.5929L510.36096,1172.5933C514.7173,1172.5933,518.6147,1175.7693,519.0378,1180.105 Z"/>
</g>
<g style="fill:rgb(225,230,233); fill-opacity:1.0; stroke-linejoin: miter">
<path d="M513.9147,1176.4004L452.67273,1176.4008C452.6169,1176.18,452.54407,1175.9594,452.48038,1175.7391L513.9147,1175.7395L513.9147,1176.4004 Z"/>
</g>
<g style="fill:rgb(225,230,233); fill-opacity:1.0; stroke-linejoin: miter">
<path d="M513.91473,1178.8345L453.14023,1178.8351C453.11404,1178.6139,453.05856,1178.393,453.02457,1178.1727L513.91473,1178.1731L513.91473,1178.8345 Z"/>
</g>
<g style="fill:rgb(225,230,233); fill-opacity:1.0; stroke-linejoin: miter">
<path d="M513.91473,1181.2695L453.2455,1181.2699C453.2498,1181.0487,453.2498,1180.8282,453.2455,1180.608L513.91473,1180.6084L513.91473,1181.2695 Z"/>
</g>
<g style="fill:rgb(225,230,233); fill-opacity:1.0; stroke-linejoin: miter">
<path d="M513.91473,1183.7048L453.02457,1183.7059C453.05844,1183.484,453.11404,1183.2635,453.14023,1183.0431L513.91473,1183.0437L513.91473,1183.7048 Z"/>
</g>
<g style="fill:rgb(225,230,233); fill-opacity:1.0; stroke-linejoin: miter">
<path d="M513.91473,1186.1389L452.48022,1186.1388C452.54422,1185.9178,452.6169,1185.6974,452.67273,1185.4774L513.91473,1185.4788L513.91473,1186.1389 Z"/>
</g>
</g>
<g>
<g style="fill:rgb(48,78,74); fill-opacity:1.0; stroke-linejoin: miter">
<path d="M435.2596,1234.553C440.13644,1234.553,444.05002,1230.3479,443.5643,1225.3733C443.14117,1221.0377,439.24356,1217.8616,434.8876,1217.8616L375.5514,1217.8627C374.68536,1217.8617,373.98346,1217.1595,373.98346,1216.2936L373.98346,1216.2938C373.98346,1215.4276,374.68536,1214.7262,375.5514,1214.7262L434.77896,1214.7263C441.06595,1214.726,446.54822,1219.5707,446.73694,1225.855C446.93198,1232.3572,441.71863,1237.69,435.26047,1237.69L375.55133,1237.6913C374.6853,1237.6901,373.9834,1236.9877,373.9834,1236.1217L373.9834,1236.121C373.9834,1235.2552,374.6853,1234.5533,375.55133,1234.5533L435.2596,1234.5535 Z"/>
</g>
<g style="fill:rgb(235,240,243); fill-opacity:1.0; stroke-linejoin: miter">
<path d="M443.5643,1225.3735C444.0502,1230.3479,440.13644,1234.5532,435.2596,1234.553L375.84888,1234.5533C378.43835,1228.9894,378.43835,1223.4257,375.84888,1217.8617L434.88754,1217.8618C439.24384,1217.8618,443.14117,1221.0377,443.5643,1225.3735 Z"/>
</g>
<g style="fill:rgb(225,230,233); fill-opacity:1.0; stroke-linejoin: miter">
<path d="M438.44125,1221.669L377.1992,1221.6693C377.14337,1221.4486,377.07053,1221.2281,377.00684,1221.0079L438.44125,1221.008L438.44125,1221.669 Z"/>
</g>
<g style="fill:rgb(225,230,233); fill-opacity:1.0; stroke-linejoin: miter">
<path d="M438.44125,1224.103L377.6667,1224.1039C377.64047,1223.8824,377.585,1223.6617,377.55103,1223.4415L438.44125,1223.4417L438.44125,1224.103 Z"/>
</g>
<g style="fill:rgb(225,230,233); fill-opacity:1.0; stroke-linejoin: miter">
<path d="M438.44125,1226.5381L377.77194,1226.5385C377.77625,1226.3175,377.77625,1226.097,377.77194,1225.8768L438.44125,1225.877L438.44125,1226.5381 Z"/>
</g>
<g style="fill:rgb(225,230,233); fill-opacity:1.0; stroke-linejoin: miter">
<path d="M438.44125,1228.9734L377.55103,1228.9747C377.58493,1228.7528,377.64047,1228.5323,377.6667,1228.3116L438.44125,1228.3123L438.44125,1228.9734 Z"/>
</g>
<g style="fill:rgb(225,230,233); fill-opacity:1.0; stroke-linejoin: miter">
<path d="M438.44125,1231.4075L377.00668,1231.4073C377.07068,1231.1866,377.14337,1230.9662,377.1992,1230.7462L438.44125,1230.7471L438.44125,1231.4075 Z"/>
</g>
<g style="fill:rgb(99,76,60); fill-opacity:1.0; stroke-linejoin: miter">
<path d="M382.0313,1211.9584C377.15448,1211.9584,373.2409,1207.753,373.72662,1202.7784C374.1497,1198.4432,378.04733,1195.2668,382.4033,1195.2668L441.7395,1195.268C442.6055,1195.2667,443.30743,1194.5648,443.30743,1193.6989L443.30743,1193.6991C443.30743,1192.8329,442.6055,1192.1312,441.7395,1192.1312L382.5119,1192.1316C376.22485,1192.1313,370.7426,1196.9762,370.554,1203.2604C370.35895,1209.7626,375.57227,1215.0953,382.03046,1215.0953L441.73953,1215.0963C442.60556,1215.0951,443.30746,1214.393,443.30746,1213.527L443.30746,1213.526C443.30746,1212.6603,442.60556,1211.9584,441.73953,1211.9584L382.0313,1211.9589 Z"/>
</g>
<g style="fill:rgb(235,240,243); fill-opacity:1.0; stroke-linejoin: miter">
<path d="M373.72662,1202.7787C373.2407,1207.753,377.15448,1211.9586,382.0313,1211.9584L441.442,1211.9584C438.85257,1206.3945,438.85257,1200.8308,441.44202,1195.2667L382.40335,1195.2671C378.04703,1195.2671,374.1497,1198.4432,373.72662,1202.7787 Z"/>
</g>
<g style="fill:rgb(225,230,233); fill-opacity:1.0; stroke-linejoin: miter">
<path d="M378.84967,1199.0743L440.0917,1199.0745C440.14755,1198.8538,440.2204,1198.6333,440.28403,1198.413L378.84967,1198.4135L378.84967,1199.0743 Z"/>
</g>
<g style="fill:rgb(225,230,233); fill-opacity:1.0; stroke-linejoin: miter">
<path d="M378.84967,1201.5087L439.62424,1201.509C439.65045,1201.2876,439.70593,1201.0669,439.7399,1200.8467L378.84967,1200.847L378.84967,1201.5087 Z"/>
</g>
<g style="fill:rgb(225,230,233); fill-opacity:1.0; stroke-linejoin: miter">
<path d="M378.84967,1203.9435L439.51898,1203.9436C439.51468,1203.7227,439.51468,1203.5022,439.51898,1203.282L378.84967,1203.2823L378.84967,1203.9435 Z"/>
</g>
<g style="fill:rgb(225,230,233); fill-opacity:1.0; stroke-linejoin: miter">
<path d="M378.84967,1206.3788L439.7399,1206.3799C439.706,1206.158,439.65045,1205.9375,439.62424,1205.717L378.84967,1205.7177L378.84967,1206.3788 Z"/>
</g>
<g style="fill:rgb(225,230,233); fill-opacity:1.0; stroke-linejoin: miter">
<path d="M378.84967,1208.8129L440.28418,1208.8124C440.22025,1208.5918,440.14755,1208.3713,440.0917,1208.1514L378.84967,1208.1527L378.84967,1208.8129 Z"/>
</g>
</g>
<g style="fill:rgb(0,0,0); fill-opacity:1.0; stroke-linejoin: miter">
<path d="M375.55756,1070.7944L375.20557,1070.5002Q373.25232,1068.9194,372.27075,1067.393Q371.09818,1065.6095,370.6261,1063.0416Q370.28867,1061.1427,370.65134,1059.3319Q370.89404,1057.7885,372.4689,1055.6613Q375.41318,1052.116,379.52505,1051.0645Q380.71985,1050.769,381.8551,1050.7266Q383.15186,1050.7188,383.6266,1050.8425Q384.25424,1050.9553,384.8395,1051.2019L386.78696,1052.1753Q387.24777,1052.3625,387.5378,1052.363Q388.4879,1052.3794,389.77426,1051.433Q390.6306,1052.6624,390.47284,1053.7737Q390.4197,1054.7966,389.14117,1057.8345L381.38943,1067.8313L375.55756,1070.7944"/>
</g>
<g style="fill:rgb(250,187,155); fill-opacity:1.0; stroke-linejoin: miter">
<path d="M381.525,1076.4941L384.10025,1072.6484Q386.92953,1073.5933,388.45248,1073.8367Q390.1636,1074.1086,391.03256,1073.6421Q391.5391,1073.3379,391.74045,1073.0122Q391.91736,1072.9011,392.30722,1071.7065Q392.65195,1070.4539,392.6864,1067.4419L394.45917,1067.0784L391.8992,1062.7859Q391.3793,1057.8293,390.50497,1055.876Q390.04712,1054.6938,388.71622,1054.2937Q387.58154,1054.0334,385.8599,1054.8821Q384.66586,1055.5022,384.03024,1056.6616Q383.45593,1057.72,383.56232,1059.6807Q383.7431,1061.8948,384.4996,1062.9636Q382.15912,1060.1572,380.57788,1061.1797Q380.2261,1061.3845,379.88348,1062.2156Q379.78787,1062.2412,378.9689,1065.7036L378.60242,1066.9109Q378.19983,1068.1323,377.62674,1069.011Q376.83292,1070.5039,374.15958,1070.2817L381.525,1076.4941"/>
</g>
<g>
<g style="fill:rgb(99,76,60); fill-opacity:1.0; stroke-linejoin: miter">
<path d="M358.6128,1234.0442C363.48962,1234.0034,367.36768,1229.7651,366.84,1224.7949C366.3804,1220.4633,362.4561,1217.32,358.10016,1217.3569L298.76617,1217.8567C297.9002,1217.864,297.19247,1217.1677,297.18515,1216.3018L297.18515,1216.3022C297.17792,1215.4363,297.87384,1214.7283,298.7398,1214.721L357.96515,1214.2224C364.2521,1214.1688,369.7751,1218.9677,370.0167,1225.2502C370.2665,1231.7507,365.0981,1237.1267,358.64008,1237.1814L298.93307,1237.6838C298.06717,1237.6914,297.35934,1236.9951,297.3521,1236.1292L297.3521,1236.1282C297.3448,1235.2627,298.04074,1234.5547,298.9067,1234.5471L358.6128,1234.0449 Z"/>
</g>
<g style="fill:rgb(235,240,243); fill-opacity:1.0; stroke-linejoin: miter">
<path d="M366.84,1224.7952C367.3679,1229.7651,363.48962,1234.0039,358.6128,1234.0442L299.2042,1234.5449C301.7467,1228.9592,301.6998,1223.396,299.06366,1217.854L358.10007,1217.3572C362.45636,1217.3202,366.3804,1220.4633,366.84,1224.7952 Z"/>
</g>
<g style="fill:rgb(225,230,233); fill-opacity:1.0; stroke-linejoin: miter">
<path d="M361.68582,1221.1342L300.44595,1221.6501C300.3883,1221.4297,300.31363,1221.2102,300.24805,1220.9905L361.6802,1220.473L361.68582,1221.1342 Z"/>
</g>
<g style="fill:rgb(225,230,233); fill-opacity:1.0; stroke-linejoin: miter">
<path d="M361.70636,1223.5682L300.93393,1224.0806C300.90585,1223.8594,300.84848,1223.6392,300.8127,1223.4192L361.70074,1222.9064L361.70636,1223.5682 Z"/>
</g>
<g style="fill:rgb(225,230,233); fill-opacity:1.0; stroke-linejoin: miter">
<path d="M361.72684,1226.0029L301.0597,1226.5144C301.0621,1226.2932,301.06027,1226.0728,301.05414,1225.8525L361.72128,1225.342L361.72684,1226.0029 Z"/>
</g>
<g style="fill:rgb(225,230,233); fill-opacity:1.0; stroke-linejoin: miter">
<path d="M361.74738,1228.438L300.85925,1228.9507C300.8913,1228.7297,300.94504,1228.5088,300.96936,1228.2881L361.74182,1227.7769L361.74738,1228.438 Z"/>
</g>
<g style="fill:rgb(225,230,233); fill-opacity:1.0; stroke-linejoin: miter">
<path d="M361.7679,1230.8726L300.3355,1231.3892C300.39758,1231.168,300.46838,1230.9468,300.5224,1230.7266L361.7623,1230.2107L361.7679,1230.8726 Z"/>
</g>
<g style="fill:rgb(0,0,0); fill-opacity:1.0; stroke-linejoin: miter">
<path d="M345.40808,1203.198L351.96146,1211.3623Q350.11917,1212.1348,349.3453,1212.3984Q348.30844,1212.7712,347.31003,1212.9785Q345.5634,1213.3428,344.18417,1212.9177Q343.36533,1212.7603,341.65997,1211.5049Q340.22446,1210.3174,338.85303,1208.8534L337.09195,1210.2025L331.27774,1205.1898L334.65903,1198.8827L345.40808,1203.198"/>
</g>
</g>
<g style="fill:rgb(19,2,2); fill-opacity:1.0; stroke-linejoin: miter">
<path d="M373.8466,1071.2603L374.15457,1069.8877Q375.9301,1070.0923,379.5157,1072.4182Q380.8513,1073.3464,381.45435,1075.2554L382.1639,1082.7506Q382.7175,1102.1027,382.65726,1108.0316Q382.69974,1119.0509,381.18542,1126.2501L369.3615,1119.8457L373.8466,1071.2603"/>
</g>
<g style="fill:rgb(255,255,255); fill-opacity:1.0; stroke-linejoin: miter">
<path d="M346.18277,1204.7563L334.12018,1200.2555L353.9393,1135.1621L369.08167,1118.175L377.92865,1123.0001Q377.6317,1127.663,380.21213,1130.9916Q382.29153,1134.0924,386.98126,1139.8031Q388.85037,1142.1691,393.6664,1146.8917Q395.15338,1148.6256,395.2961,1149.0321Q396.73114,1151.2303,396.00027,1154.4591Q395.7825,1156.0084,393.27765,1160.5817Q383.55273,1175.752,378.64197,1184.3108L369.72702,1177.9559L384.26245,1154.1692L365.70905,1142.3916L346.18277,1204.7563"/>
</g>
<g style="fill:rgb(255,255,255); fill-opacity:1.0; stroke-linejoin: miter">
<path d="M363.61884,1131.5918L346.748,1128.4392Q347.62485,1115.6174,349.18097,1107.9614Q350.40338,1102.5483,350.8152,1101.5503Q352.14853,1097.3657,353.94046,1093.6074Q358.41882,1084.4021,363.55322,1078.5175Q366.7883,1074.2936,373.54565,1072.4329L373.73218,1070.6514Q377.09525,1071.7605,378.15717,1073.5779Q379.15662,1074.687,380.22937,1079.2529Q380.8086,1081.8492,381.59528,1087.4274Q381.23337,1098.3456,380.5776,1101.5709Q379.60788,1108.286,376.53015,1113.368Q375.16223,1116.0419,369.4527,1122.8188L363.61884,1131.5918"/>
</g>
<g style="fill:rgb(255,255,255); fill-opacity:1.0; stroke-linejoin: miter">
<path d="M381.09174,1133.1525L384.8055,1122.767L389.89114,1124.1244L393.69055,1117.3102L385.9249,1113.2194Q386.2059,1107.0267,385.4512,1101.2306Q384.85614,1095.9169,381.8757,1079.8901L381.09174,1133.1525"/>
</g>
<g style="fill:rgb(255,255,255); fill-opacity:1.0; stroke-linejoin: miter">
<path d="M376.10373,1123.2863L379.39362,1122.8505L382.6835,1122.4147L380.40784,1137.184L376.10373,1123.2863"/>
</g>
<g style="fill:rgb(0,0,0); fill-opacity:1.0; stroke-linejoin: miter">
<path d="M371.0864,1177.4845L370.45438,1178.2128Q366.16925,1183.0038,365.13623,1185.6903Q364.08044,1188.1237,365.76767,1191.7523L371.61023,1192.0775L371.9646,1190.2811Q371.98688,1190.9254,372.30167,1191.173Q372.87064,1191.581,373.19812,1191.6431Q374.3184,1192.0798,378.38956,1192.293Q391.5244,1192.6702,392.7133,1191.2126Q393.36148,1190.3755,390.2865,1189.2493Q387.84586,1188.4631,383.20776,1187.8889L371.0864,1177.4845"/>
</g>
<g style="fill:rgb(0,0,0); fill-opacity:1.0; stroke-linejoin: miter">
<path d="M373.89236,1146.5474L370.05634,1162.5093L366.2203,1178.4713L319.7102,1167.0492L327.35428,1133.8788L373.89236,1146.5474"/>
</g>
<g style="fill:rgb(0,0,0); fill-opacity:1.0; stroke-linejoin: miter">
<path d="M345.45996,1139.7379L347.24875,1135.6086L356.3484,1138.443L355.49295,1143.5734Q353.0123,1142.0302,352.63443,1141.1669Q352.10284,1140.3197,352.76456,1138.4415L348.38083,1137.3115L347.71906,1139.9257L345.45996,1139.7379"/>
</g>
<g style="fill:rgb(250,187,155); fill-opacity:1.0; stroke-linejoin: miter">
<path d="M391.33005,1117.7694L391.84045,1117.962Q394.66022,1119.0555,396.2713,1119.2638Q396.5321,1119.3307,397.57416,1119.3221Q398.10272,1119.2982,399.48398,1119.0953Q400.04413,1119.0398,400.14993,1119.0481Q400.78195,1119.0513,401.1167,1119.1638Q401.781,1119.334,402.45844,1120.012Q403.2372,1120.928,403.3258,1121.2031Q403.86868,1122.374,403.86282,1122.6443Q403.9693,1123.146,403.94968,1123.6414Q403.93,1124.1362,403.7581,1124.5942L403.54523,1125.0337Q403.2914,1125.46,402.9104,1125.8269Q401.69397,1126.9421,399.99524,1127.3887Q398.66766,1127.671,398.39594,1127.6185Q397.4095,1127.6144,396.62665,1127.2977Q395.8439,1126.9801,395.2051,1126.5033Q392.2816,1124.0948,390.98953,1123.1241L387.88138,1121.6161L391.33005,1117.7694"/>
</g>
<g style="fill:rgb(250,187,155); fill-opacity:1.0; stroke-linejoin: miter">
<path d="M357.6478,1129.9067L357.49805,1130.8044Q356.69208,1135.8196,355.91577,1137.8494Q355.42847,1139.0858,355.0049,1139.528Q354.5422,1140.0658,354.01117,1140.236Q352.50165,1140.7281,350.54425,1138.5726Q349.49155,1137.3718,348.93372,1136.0342Q348.7602,1135.6057,348.67883,1135.2109L348.62512,1134.8318Q348.59995,1134.468,348.67624,1134.1589Q348.83817,1133.5464,349.29538,1133.094Q350.00433,1132.4275,350.96274,1131.897L351.47165,1128.8159L357.6478,1129.9067"/>
</g>
<g style="fill:rgb(0,0,0); fill-opacity:1.0; stroke-linejoin: miter">
<path d="M384.83118,1063.4858L384.70865,1062.6267Q383.64432,1060.2446,383.4634,1058.7375Q383.29578,1057.1233,383.83612,1056.3687Q384.20596,1055.7637,385.08444,1055.0049Q386.44046,1054.3647,387.22507,1054.2075Q387.8964,1054.0657,388.47806,1054.2522Q389.17773,1054.4792,390.07272,1055.176L390.4895,1053.4702L384.68512,1053.3105L382.28146,1053.3889L381.25595,1054.1765L383.05017,1060.8181L384.83118,1063.4858"/>
</g>
<g style="fill:rgb(255,255,255); fill-opacity:1.0; stroke-linejoin: miter">
<path d="M390.358,1117.3998L391.98227,1117.4088L393.6066,1117.4178L390.19824,1124.2865L383.86444,1122.7802L390.358,1117.3998"/>
</g>
<g style="fill:rgb(255,255,255); fill-opacity:1.0; stroke-linejoin: miter">
<path d="M347.06277,1127.103L346.90112,1128.1152L346.73947,1129.1277L358.06378,1131.2078L359.6336,1123.6672L347.06277,1127.103"/>
</g>
<g style="fill:rgb(255,255,255); fill-opacity:1.0; stroke-linejoin: miter">
<path d="M368.747,1118.4312L371.22134,1118.0576Q377.00714,1120.746,378.65164,1121.0267Q379.0891,1121.1198,379.44418,1121.1425Q379.66214,1121.1876,380.3611,1121.0836Q381.02448,1120.9489,381.75592,1120.3129L382.9961,1126.1539L368.747,1118.4312"/>
</g>
<g style="fill:rgb(255,255,255); fill-opacity:1.0; stroke-linejoin: miter">
<path d="M382.7646,1123.9132L380.4968,1123.3766L378.22916,1122.8402Q380.2213,1110.2155,382.21344,1097.5897L384.30942,1114.8209L382.7646,1123.9132"/>
</g>
<g style="fill:rgb(0,0,0); fill-opacity:1.0; stroke-linejoin: miter">
<path d="M599.0169,1121.7617L599.01697,1112.7502L607.70447,1107.9493L560.69794,1082.8434L513.68713,1107.9518L532.4279,1118.8358L532.4279,1125.2452L532.4279,1125.7496C532.47864,1125.7233,532.5425,1125.6991,532.59753,1125.6725C532.39703,1125.9479,532.267,1126.2167,532.267,1126.4987C532.267,1129.6449,544.9886,1132.2097,560.69794,1132.2097C576.39825,1132.2096,589.13306,1129.645,589.13306,1126.4988C589.13306,1126.2168,588.9964,1125.948,588.80255,1125.6724C588.85767,1125.7056,588.9215,1125.7231,588.97003,1125.7495L588.97003,1125.2451L588.97003,1118.8184L597.14636,1113.7881L597.14636,1121.7617C596.2541,1122.1274,595.62604,1123.0132,595.62604,1124.0398C595.62604,1125.397,596.7256,1126.4988,598.0806,1126.4988C599.44885,1126.4988,600.5461,1125.397,600.5461,1124.04C600.5461,1123.0132,599.9204,1122.1274,599.0169,1121.7617 Z M560.69794,1130.044C546.7578,1130.0435,535.46405,1128.4531,535.46405,1126.501C535.46405,1124.5488,546.75775,1122.9624,560.69794,1122.9629C574.6312,1122.9628,585.92957,1124.549,585.92957,1126.5009C585.92957,1128.453,574.6313,1130.0438,560.69794,1130.044 Z M588.35535,1113.5834C586.4826,1111.5804,579.7451,1106.3235,560.69794,1106.3236C541.6397,1106.3235,534.9132,1111.585,533.0426,1113.5897L533.04266,1111.6862C533.04266,1111.6862,538.49786,1103.4966,560.69794,1103.497C582.89575,1103.4966,588.3554,1111.6864,588.3554,1111.6864L588.35535,1113.5834 Z"/>
</g>
<g style="fill:rgb(255,255,255); fill-opacity:1.0; stroke-linejoin: miter">
<path d="M560.69794,1122.9019C546.8164,1122.9014,535.4031,1124.469,535.4031,1126.501C535.4031,1128.5327,546.8164,1130.1045,560.69794,1130.105C574.5727,1130.1046,585.99054,1128.5328,585.99054,1126.5009C585.99054,1124.4694,574.5726,1122.9017,560.69794,1122.9019 Z"/>
</g>
<g style="fill:rgb(255,255,255); fill-opacity:1.0; stroke-linejoin: miter">
<path d="M560.69794,1103.4579C538.48676,1103.4578,533.0184,1111.652,533.01,1111.6647C533.0058,1111.671,533.0034,1111.6786,533.0034,1111.6862L533.00336,1113.5897C533.00336,1113.6058,533.01324,1113.6205,533.02826,1113.6263C533.0329,1113.628,533.0377,1113.629,533.0426,1113.629C533.0533,1113.629,533.06366,1113.6246,533.07117,1113.6166C534.93225,1111.6218,541.64685,1106.3625,560.69794,1106.3629C579.73804,1106.3625,586.4636,1111.6176,588.32684,1113.61C588.33435,1113.6183,588.34485,1113.6224,588.35535,1113.6224C588.3602,1113.6224,588.3652,1113.6217,588.3698,1113.6198C588.3847,1113.6141,588.39453,1113.5995,588.39453,1113.5834L588.3946,1111.6864C588.3946,1111.6786,588.39233,1111.671,588.3881,1111.6647C588.37976,1111.6522,582.90686,1103.4575,560.69794,1103.4579 Z"/>
</g>
<g style="fill:rgb(0,0,0); fill-opacity:1.0; stroke-linejoin: miter">
<path d="M588.35535,1113.5834C586.4826,1111.5804,579.7451,1106.3235,560.69794,1106.3236C541.6397,1106.3235,534.9132,1111.585,533.0426,1113.5897L533.04266,1111.6862C533.04266,1111.6862,538.49786,1103.4966,560.69794,1103.497C582.89575,1103.4966,588.3554,1111.6864,588.3554,1111.6864L588.35535,1113.5834 Z"/>
</g>
<g style="fill:rgb(0,0,0); fill-opacity:1.0; stroke-linejoin: miter">
<path d="M599.0169,1121.7617L599.01697,1112.7502L607.70447,1107.9493L560.69794,1082.8434L513.68713,1107.9518L532.4279,1118.8358L532.4279,1125.2452L532.4279,1125.7496C532.47864,1125.7233,532.5425,1125.6991,532.59753,1125.6725C532.39703,1125.9479,532.267,1126.2167,532.267,1126.4987C532.267,1129.6449,544.9886,1132.2097,560.69794,1132.2097C576.39825,1132.2096,589.13306,1129.645,589.13306,1126.4988C589.13306,1126.2168,588.9964,1125.948,588.80255,1125.6724C588.85767,1125.7056,588.9215,1125.7231,588.97003,1125.7495L588.97003,1125.2451L588.97003,1118.8184L597.14636,1113.7881L597.14636,1121.7617C596.2541,1122.1274,595.62604,1123.0132,595.62604,1124.0398C595.62604,1125.397,596.7256,1126.4988,598.0806,1126.4988C599.44885,1126.4988,600.5461,1125.397,600.5461,1124.04C600.5461,1123.0132,599.9204,1122.1274,599.0169,1121.7617 Z M560.69794,1130.044C546.7578,1130.0435,535.46405,1128.4531,535.46405,1126.501C535.46405,1124.5488,546.75775,1122.9624,560.69794,1122.9629C574.6312,1122.9628,585.92957,1124.549,585.92957,1126.5009C585.92957,1128.453,574.6313,1130.0438,560.69794,1130.044 Z"/>
</g>
<g style="fill:rgb(34,43,50); fill-opacity:1.0; stroke-linejoin: miter">
<path d="M560.69794,1122.9019C546.8164,1122.9014,535.4031,1124.469,535.4031,1126.501C535.4031,1128.5327,546.8164,1130.1045,560.69794,1130.105C574.5727,1130.1046,585.99054,1128.5328,585.99054,1126.5009C585.99054,1124.4694,574.5726,1122.9017,560.69794,1122.9019 Z"/>
</g>
<g style="fill:rgb(255,0,0); fill-opacity:1.0; stroke-linejoin: miter">
<path d="M560.69794,1103.4579C538.48676,1103.4578,533.0184,1111.652,533.01,1111.6647C533.0058,1111.671,533.0034,1111.6786,533.0034,1111.6862L533.00336,1113.5897C533.00336,1113.6058,533.01324,1113.6205,533.02826,1113.6263C533.0329,1113.628,533.0377,1113.629,533.0426,1113.629C533.0533,1113.629,533.06366,1113.6246,533.07117,1113.6166C534.93225,1111.6218,541.64685,1106.3625,560.69794,1106.3629C579.73804,1106.3625,586.4636,1111.6176,588.32684,1113.61C588.33435,1113.6183,588.34485,1113.6224,588.35535,1113.6224C588.3602,1113.6224,588.3652,1113.6217,588.3698,1113.6198C588.3847,1113.6141,588.39453,1113.5995,588.39453,1113.5834L588.3946,1111.6864C588.3946,1111.6786,588.39233,1111.671,588.3881,1111.6647C588.37976,1111.6522,582.90686,1103.4575,560.69794,1103.4579 Z"/>
</g>
<g style="fill:rgb(252,184,38); fill-opacity:1.0; stroke-linejoin: miter">
<path d="M599.1236,1112.6487L597.1469,1113.7351L597.1469,1121.415C596.2041,1121.8015,595.5406,1122.7373,595.5406,1123.8223C595.5406,1125.2561,596.7024,1126.4204,598.1341,1126.4204C599.5798,1126.4204,600.7392,1125.2566,600.7392,1123.8223C600.7392,1122.7375,600.078,1121.8015,599.12354,1121.415L599.1236,1112.6487 Z"/>
</g>
<g style="fill:rgb(255,255,255); fill-opacity:1.0; stroke-linejoin: miter">
<path d="M511.41357,1128.4955L564.8259,1128.4957L618.23846,1128.4962Q618.23846,1138.0499,618.2385,1147.6042Q564.826,1147.6045,511.41364,1147.605Q511.41357,1138.0499,511.41357,1128.4955"/>
</g>
<g style="fill:rgb(255,255,255); fill-opacity:1.0; stroke-linejoin: miter">
<path d="M511.3708,1130.8561L564.78326,1130.8561L618.1956,1130.8566Q618.1957,1139.2817,618.1957,1147.707Q564.7833,1147.7073,511.37085,1147.7078Q511.37085,1139.2817,511.3708,1130.8561"/>
</g>
<g style="fill:rgb(223,217,217); fill-opacity:0.28627452; stroke-linejoin: miter">
<path d="M511.37085,1142.4636Q511.37085,1145.0857,511.37085,1147.7078Q532.99176,1147.7076,554.6127,1147.7075Q558.43713,1147.7075,562.25757,1147.7075L562.2658,1147.7083C562.27893,1148.3755,562.2891,1149.4092,562.29614,1150.8296L569.65405,1150.8308C569.6659,1149.3328,569.6746,1148.3767,569.68695,1147.7715C569.7315,1147.8047,569.7679,1147.8342,569.79913,1147.8599C569.90894,1147.9451,570.0405,1148.0203,570.12616,1148.0203C570.1308,1148.0203,570.1373,1148.0195,570.1421,1148.0193C570.15857,1148.0173,570.17566,1148.0127,570.19147,1148.002C570.208,1147.9912,570.21735,1147.9761,570.2223,1147.9668C570.2436,1147.928,570.2598,1147.8362,570.2714,1147.7075L570.2646,1147.7083Q574.5528,1147.7075,578.8361,1147.7072L578.8317,1147.7081Q598.4888,1147.7074,618.1504,1147.707L618.1957,1147.7078Q618.1957,1147.6558,618.1957,1147.6042Q618.2385,1145.0337,618.2385,1142.4636L563.55255,1142.4636 Z M578.8274,1147.7072Q574.5497,1147.7075,570.2718,1147.7075L570.2714,1147.7083Q574.54724,1147.7075,578.8231,1147.7072 Z M562.52814,1148.261L562.52814,1148.2617C562.52795,1148.261,562.5279,1148.261,562.52783,1148.261L562.52747,1148.2617C562.52765,1148.261,562.5277,1148.261,562.52783,1148.261 Z M565.1351,1148.9006C565.1351,1148.9006,565.135,1148.9006,565.13495,1148.9006L565.1347,1148.9014C565.13477,1148.9006,565.1348,1148.9006,565.13495,1148.9006 Z"/>
</g>
<g style="fill:rgb(223,217,217); fill-opacity:1.0; stroke-linejoin: miter">
<path d="M567.39435,1148.3306C567.39435,1148.3306,567.3942,1148.3306,567.3942,1148.331L567.3941,1148.3315C567.3941,1148.3306,567.3941,1148.3306,567.3941,1148.3306 Z"/>
</g>
<g style="fill:rgb(244,67,54); fill-opacity:1.0; stroke-linejoin: miter">
<path d="M574.2475,1140.6199L574.3112,1140.6326C574.3106,1140.6357,574.3097,1140.6387,574.30884,1140.6409L574.30884,1140.6411L574.24744,1140.6201L574.2454,1140.6204C574.2454,1140.6201,574.2454,1140.6201,574.2454,1140.6199 Z M565.7774,1132.6488C566.46155,1132.6488,567.627,1132.7997,567.9728,1132.9496L567.97375,1132.9503C568.0106,1132.9652,568.04926,1132.9813,568.1046,1133.0043C568.1753,1133.0338,568.2702,1133.0731,568.3573,1133.1088L568.3572,1133.1093C568.4312,1133.1395,568.52435,1133.1776,568.59326,1133.205L568.59326,1133.2054C568.9353,1133.348,569.2878,1133.5558,569.9269,1133.9987L569.9269,1133.9989C570.65515,1134.5057,571.73114,1136.0934,571.9749,1137.0184L571.9749,1137.0184C572.01935,1137.2035,572.1067,1137.5018,572.1731,1137.6932L572.1729,1137.6932C572.2488,1137.9427,572.27124,1138.2607,572.2495,1139.0527L572.2495,1139.053C572.2278,1139.9443,572.1918,1140.1631,572.01984,1140.6785L572.01984,1140.6787C571.56494,1142.0288,570.8659,1143.0581,569.82886,1143.8794L569.82855,1143.8796C569.55096,1144.1016,569.3105,1144.2695,569.258,1144.2878L569.2559,1144.2878C569.25256,1144.2878,569.2494,1144.2886,569.2464,1144.2893L569.24615,1144.2893C569.18335,1144.3013,568.9981,1144.4001,568.825,1144.4998L568.8243,1144.5005C568.63293,1144.6138,568.2879,1144.7649,568.0528,1144.8359L568.05273,1144.8362C567.811,1144.9021,567.5529,1144.9973,567.4744,1145.0369L567.4738,1145.0371C567.2838,1145.1343,566.6512,1145.2031,566.01764,1145.2031C565.74084,1145.2031,565.4682,1145.1897,565.24194,1145.1614L565.2413,1145.1611L565.2396,1145.1611C564.85657,1145.1191,564.5327,1145.0593,564.4718,1145.0342L564.4706,1145.0344C564.41864,1144.9956,564.22473,1144.9282,564.05,1144.8792L564.05,1144.8794C563.7015,1144.7817,562.7555,1144.3301,562.65173,1144.2295L562.6504,1144.2295C562.64594,1144.2207,562.64087,1144.2141,562.6365,1144.2087L562.6365,1144.209C562.5972,1144.1628,562.4546,1144.0759,562.32434,1144.0042L562.3214,1144.0027C562.0377,1143.8645,560.8896,1142.6963,560.7204,1142.3789L560.7204,1142.3789C560.662,1142.2695,560.54675,1142.0461,560.4663,1141.8855L560.4659,1141.8843C559.9183,1140.8398,559.76733,1140.1882,559.76733,1138.8584C559.7746,1137.9434,559.8692,1137.2847,560.05334,1136.8452L560.0536,1136.8447C560.27826,1136.29,560.4703,1135.8721,560.5119,1135.812L560.5101,1135.8123L560.51215,1135.8113C560.5138,1135.8098,560.5138,1135.8098,560.51575,1135.8076C560.5461,1135.7747,560.6075,1135.665,560.6621,1135.5625L560.6627,1135.5615C560.9403,1135.0205,562.1238,1133.8368,562.6647,1133.5594L562.66565,1133.5587C562.7676,1133.5043,562.8766,1133.4432,562.9103,1133.413L562.9101,1133.413C562.91144,1133.4117,562.9119,1133.4113,562.91223,1133.411L562.9121,1133.411C562.95807,1133.3746,563.3585,1133.1945,563.9453,1132.944L563.94495,1132.9442C564.06256,1132.9025,564.4007,1132.8231,564.6967,1132.7797C564.88055,1132.7528,565.0354,1132.7291,565.1903,1132.7057L565.1903,1132.7059C565.2835,1132.6915,565.3583,1132.6803,565.4056,1132.6735L565.4058,1132.6735C565.4226,1132.6708,565.4087,1132.6727,565.42444,1132.6708L565.42645,1132.6703C565.51025,1132.6559,565.63025,1132.6488,565.7774,1132.6488 Z M564.9783,1128.8536C564.9481,1128.8536,564.9242,1128.8676,564.9076,1128.8817L564.9074,1128.882C564.8617,1128.9218,564.83856,1128.996,564.83856,1129.0665C564.83856,1129.109,564.8287,1129.1383,564.82245,1129.15L564.82056,1129.1505C564.7988,1129.1588,564.7864,1129.1752,564.7843,1129.1774C564.73456,1129.2377,564.6395,1129.4943,564.5505,1129.7743L564.55,1129.776C564.45917,1130.09,564.3668,1130.3385,564.34045,1130.3744L564.3386,1130.3746C564.3368,1130.3761,564.335,1130.3776,564.3335,1130.3793L564.33344,1130.3795C564.28174,1130.4303,564.2249,1130.5858,564.1859,1130.7223L564.1856,1130.723C564.13153,1130.9235,564.0891,1130.9484,564.069,1130.9484C564.0314,1130.9484,563.95605,1130.9015,563.8115,1130.746L563.81116,1130.746C563.56616,1130.4867,562.5686,1129.5829,562.4472,1129.5194L562.4472,1129.5197C562.44476,1129.5182,562.42834,1129.5092,562.40845,1129.5092C562.353,1129.5092,562.33704,1129.5695,562.33856,1129.5695L562.3391,1129.5697C562.31976,1129.649,562.2875,1130.0426,562.2615,1130.4967L562.2615,1130.4967C562.232,1131.0211,562.1734,1131.5052,562.13025,1131.5917L562.12805,1131.5963L562.0763,1131.7233L561.5967,1131.4614L561.5964,1131.4612L561.5949,1131.4604C560.88525,1131.0776,560.2853,1130.772,560.188,1130.75L560.188,1130.75C560.18646,1130.7495,560.18494,1130.749,560.18335,1130.7488L560.18225,1130.749L560.16705,1130.7471L560.16516,1130.7473L560.1263,1130.7598C560.099,1130.779,560.09564,1130.8127,560.09576,1130.8127L560.09576,1130.813C560.08325,1130.8904,560.1223,1131.2747,560.18756,1131.7119L560.18756,1131.7119C560.21747,1131.9155,560.2437,1132.0901,560.26764,1132.2498C560.2821,1132.346,560.29926,1132.4609,560.3076,1132.5181L560.3076,1132.5181C560.31177,1132.5459,560.3151,1132.5693,560.3178,1132.5884C560.1645,1132.5793,559.81323,1132.4932,559.7412,1132.4421L559.7412,1132.4424C559.73834,1132.4402,559.73444,1132.4375,559.7321,1132.4358L559.7316,1132.4358C559.6301,1132.3728,558.76086,1132.1353,558.6136,1132.1306L558.6118,1132.1306L558.6085,1132.1301L558.6066,1132.1301L558.59674,1132.1309C558.54407,1132.1387,558.5305,1132.1875,558.5274,1132.2017C558.52075,1132.2327,558.5242,1132.273,558.52985,1132.3105C558.54956,1132.4419,558.61847,1132.6572,558.69794,1132.7793L558.69775,1132.7798C558.74115,1132.8608,558.8534,1133.1135,558.9386,1133.3484C559.02563,1133.5874,559.13007,1133.8206,559.16425,1133.8721L559.16986,1133.8792L559.16974,1133.8794C559.21716,1133.9438,559.3999,1134.4763,559.4426,1134.6533L559.4407,1134.6536C559.34326,1134.6658,559.1162,1134.6777,558.84143,1134.6777C558.4615,1134.6777,557.8554,1134.6997,557.49054,1134.7214L557.48944,1134.7217L556.8343,1134.7725C556.8092,1134.7744,556.7873,1134.7905,556.77765,1134.8135C556.76807,1134.8369,556.7723,1134.8635,556.7886,1134.8826L557.3418,1135.5305L557.3424,1135.5312C557.64874,1135.8804,557.8733,1136.2019,557.8868,1136.2642L557.8859,1136.2642C557.88116,1136.2927,557.83167,1136.3369,557.50165,1136.4119L557.50165,1136.4121C556.58875,1136.6191,556.2992,1136.6848,556.22614,1136.7637L556.22614,1136.7637C556.21515,1136.7756,556.20636,1136.7893,556.2009,1136.8054L556.19946,1136.8103C556.19214,1136.8394,556.2048,1136.8643,556.20825,1136.8711L556.20825,1136.8711C556.27045,1136.9934,556.87305,1137.4932,557.0527,1137.5723L557.0537,1137.5725C557.1668,1137.6201,557.77435,1138.1138,557.9067,1138.2534L557.9048,1138.2537C557.8713,1138.281,557.8072,1138.323,557.7283,1138.3604L557.72675,1138.3611C557.61664,1138.4163,557.38544,1138.541,557.14606,1138.6704L557.1459,1138.6704L556.9751,1138.7625L556.97516,1138.7627C556.97437,1138.763,556.97205,1138.7642,556.97,1138.7656L556.9699,1138.7656C556.69446,1138.9248,556.3342,1139.1191,556.17847,1139.19L556.1763,1139.1909L555.88495,1139.3367C555.8617,1139.3484,555.84717,1139.3728,555.8481,1139.3989C555.8489,1139.4248,555.8648,1139.448,555.889,1139.4583L556.2531,1139.6108L556.2526,1139.6108L556.2625,1139.6152L556.2625,1139.6152C556.39404,1139.6714,556.32996,1139.644,556.4785,1139.7073C556.52203,1139.7263,556.7136,1139.8081,556.75977,1139.8276C556.85516,1139.8687,556.93976,1139.905,557.0167,1139.9382L557.0167,1139.9385C557.23486,1140.0327,557.52136,1140.1506,557.6555,1140.1953L557.6554,1140.1956C557.9472,1140.3049,557.9655,1140.3538,557.94293,1140.4138C557.9125,1140.4951,557.8012,1140.617,557.5798,1140.8257C556.76654,1141.5881,556.53125,1141.8032,556.5176,1141.9236C556.51483,1141.9478,556.51917,1141.97,556.5277,1141.989L556.5279,1141.989C556.53577,1142.0068,556.54663,1142.0208,556.5552,1142.031L556.5558,1142.0317C556.5602,1142.0369,556.5655,1142.0417,556.56964,1142.0452C556.64856,1142.1113,556.94946,1142.1658,557.24097,1142.1931L557.24194,1142.1931L557.2432,1142.1931L557.24304,1142.1934C557.97614,1142.2537,558.1869,1142.3044,558.2145,1142.3477L558.21265,1142.3479C558.197,1142.4023,558.0856,1142.5962,557.93506,1142.8083C557.788,1143.0088,557.65576,1143.2166,557.6364,1143.2776L557.6364,1143.2776C557.63477,1143.2825,557.63184,1143.2927,557.63153,1143.3044L557.6297,1143.3047C557.6148,1143.3401,557.55164,1143.4426,557.4637,1143.5559C557.37274,1143.6729,557.2904,1143.7947,557.2733,1143.8428L557.2733,1143.8428C557.2715,1143.8481,557.2676,1143.8599,557.2676,1143.8735C557.2676,1143.9299,557.3248,1143.9458,557.32574,1143.9458L557.32587,1143.946C557.37,1143.96,557.4759,1143.9636,557.60065,1143.9636C558.13965,1143.9636,559.36237,1143.888,559.5001,1143.8306L559.5001,1143.8306C559.5053,1143.8284,559.5155,1143.8237,559.5246,1143.8162L559.52936,1143.8118C559.54767,1143.7952,559.64465,1143.7659,559.75867,1143.7659C559.84546,1143.7659,559.8698,1143.7695,559.87805,1143.7744L559.8762,1143.7747C559.8772,1143.7778,559.87836,1143.7854,559.87836,1143.7993L559.87836,1143.7993C559.87836,1143.8376,559.86945,1143.8965,559.85284,1143.9934L559.85284,1143.9934C559.7801,1144.4231,559.61383,1145.0696,559.5314,1145.2341L559.53076,1145.2354C559.45966,1145.3848,559.24915,1146.1663,559.2524,1146.282L559.2524,1146.282L559.2524,1146.2822C559.25214,1146.2854,559.2524,1146.3225,559.282,1146.3442L559.28186,1146.3445C559.3002,1146.3584,559.321,1146.3594,559.3277,1146.3594C559.3293,1146.3594,559.33,1146.3594,559.32983,1146.3594C559.33185,1146.3594,559.3343,1146.3594,559.3361,1146.3594L559.33594,1146.3594C559.4476,1146.3535,560.1878,1146.0918,560.2804,1146.0222L560.2804,1146.0222C560.2844,1146.0195,560.2902,1146.0146,560.2959,1146.008L560.29565,1146.008C560.33386,1145.9741,560.597,1145.8733,560.9695,1145.7656L560.9694,1145.7659L561.0481,1145.7449L561.00214,1146.5635L561.00214,1146.563L561.00214,1146.565C560.98285,1147.011,560.979,1147.4104,561.0049,1147.4934L561.0048,1147.4937C561.006,1147.4988,561.02185,1147.5488,561.0733,1147.5513L561.0762,1147.5513L561.07635,1147.5515C561.0869,1147.5513,561.0959,1147.5491,561.1014,1147.5476L561.1014,1147.5479C561.16034,1147.532,561.3389,1147.4275,561.5068,1147.3071L561.50665,1147.3071L561.5246,1147.2952L561.5246,1147.2952L561.5855,1147.2542L561.5855,1147.2544C561.5855,1147.2542,561.6344,1147.2214,561.64075,1147.2173C562.0402,1146.9492,562.1724,1146.8638,562.2321,1146.8362L562.234,1146.8362C562.27344,1147.2207,562.29865,1149.4817,562.3052,1153.8687L562.3052,1153.8687L562.327,1160.9814C562.32715,1161.0095,562.3449,1161.0347,562.37146,1161.0442C562.37885,1161.0469,562.38635,1161.0481,562.394,1161.0481C562.4136,1161.0481,562.43256,1161.0393,562.44556,1161.0239L562.897,1160.4778L562.89685,1160.478C563.1437,1160.1802,563.46387,1159.8091,563.6082,1159.6501L563.6094,1159.6489C563.6525,1159.5991,563.7362,1159.5012,563.83014,1159.3918L563.83014,1159.3918C563.9857,1159.2102,564.213,1158.9451,564.4203,1158.7051C564.47534,1158.6414,564.4938,1158.6199,564.5484,1158.5571L564.5492,1158.5562C564.92114,1158.1113,565.3848,1157.5679,565.582,1157.3413C565.7731,1157.1221,565.9638,1156.9622,566.0149,1156.9497L566.012,1156.9497L566.01666,1156.9492L566.0186,1156.9492C566.0492,1156.9526,566.1475,1157.0317,566.23206,1157.1658C566.319,1157.3032,566.45917,1157.4729,566.55945,1157.5186L566.55853,1157.5188C566.6196,1157.5566,566.6552,1157.5996,566.6588,1157.6138L566.65857,1157.6143C566.6595,1157.6323,566.66785,1157.6467,566.6685,1157.6482L566.6685,1157.6482C566.7531,1157.8125,568.6339,1160.0,569.1086,1160.4961L569.1096,1160.4971C569.2136,1160.6011,569.2747,1160.6965,569.2795,1160.7224L569.2793,1160.7227C569.27954,1160.729,569.28033,1160.7354,569.2814,1160.741L569.2814,1160.741C569.29297,1160.8022,569.3551,1160.8806,569.4113,1160.9297L569.4114,1160.9297L569.4127,1160.9309C569.42175,1160.9385,569.4405,1160.9512,569.4667,1160.9512C569.5127,1160.9512,569.5349,1160.9148,569.54224,1160.9001L569.54224,1160.9001C569.6223,1160.7422,569.633,1159.4778,569.6461,1153.8472L569.6461,1153.8472C569.6649,1148.2693,569.6811,1147.0244,569.7399,1146.8066L569.7419,1146.8066C569.83356,1146.8491,570.0625,1146.9875,570.3036,1147.1667L570.30457,1147.1675C570.5691,1147.3574,570.8416,1147.5312,570.92584,1147.5488L570.926,1147.5488C570.93243,1147.5503,570.939,1147.5513,570.94775,1147.5513C570.99133,1147.5513,571.0158,1147.5198,571.02606,1147.5022C571.0602,1147.4436,571.0691,1147.3096,571.0691,1147.1548C571.0691,1146.8735,571.03656,1146.448,570.9777,1145.9978L570.9775,1145.9968C570.95917,1145.8728,570.95776,1145.7822,570.9627,1145.737L570.9647,1145.7373C571.132,1145.7727,571.6823,1145.9636,571.7455,1146.0098L571.7455,1146.01C571.86926,1146.104,572.62177,1146.3594,572.7419,1146.3596L572.74225,1146.3599C572.7427,1146.3596,572.7434,1146.3596,572.7445,1146.3596C572.7522,1146.3596,572.77527,1146.3586,572.7951,1146.3428L572.7533,1146.2908L572.80084,1146.3376C572.82526,1146.313,572.82355,1146.2803,572.82324,1146.2732C572.82117,1146.22,572.78064,1146.1157,572.733,1146.0205L572.7314,1146.0176C572.6708,1145.9097,572.5706,1145.6116,572.50507,1145.3572C572.4394,1145.0942,572.3374,1144.7437,572.2701,1144.571L572.2701,1144.5715C572.15063,1144.2478,572.1778,1144.1987,572.2359,1144.1772L572.2359,1144.1777C572.2669,1144.166,572.316,1144.1592,572.3891,1144.1592C572.4538,1144.1592,572.5337,1144.1643,572.63055,1144.1733L572.6304,1144.1736C572.8806,1144.2019,573.09296,1144.2424,573.12946,1144.263L573.12915,1144.2632L573.12933,1144.2632C573.1332,1144.2656,573.13617,1144.2678,573.13916,1144.2693L573.13916,1144.2695C573.25055,1144.3335,573.8769,1144.387,574.1825,1144.387C574.26306,1144.387,574.3391,1144.3838,574.37836,1144.3699L574.37836,1144.3701C574.38074,1144.3689,574.4362,1144.352,574.4362,1144.2959C574.4362,1144.2847,574.4336,1144.2744,574.43207,1144.2693L574.43207,1144.2693C574.4149,1144.2109,574.2968,1144.0146,574.1711,1143.8159L574.1705,1143.8152C574.04675,1143.6262,573.9494,1143.4619,573.92865,1143.4128L573.9267,1143.4128C573.92633,1143.4023,573.924,1143.3938,573.9227,1143.3894L573.9227,1143.3894C573.905,1143.3279,573.77325,1143.0986,573.62506,1142.8696L573.6245,1142.8687C573.48126,1142.6475,573.3706,1142.4517,573.3472,1142.3918L573.3453,1142.3921C573.38916,1142.3567,573.59973,1142.3206,574.41315,1142.2295L574.41345,1142.2295C574.8466,1142.179,575.28815,1142.098,575.39465,1142.049L575.3965,1142.048L575.3967,1142.0477L575.39667,1142.048C575.4273,1142.0326,575.4671,1142.0121,575.49176,1141.9806C575.51117,1141.9557,575.52057,1141.9252,575.51624,1141.891L575.51624,1141.891C575.51373,1141.872,575.5071,1141.8534,575.4987,1141.8365C575.4495,1141.7384,575.2725,1141.5743,574.91693,1141.2476L574.91693,1141.2471C574.61475,1140.97,574.38257,1140.7234,574.3234,1140.635L574.3215,1140.635C574.3627,1140.606,574.4648,1140.5554,574.5896,1140.5171L574.58936,1140.5173C574.76624,1140.4729,574.951,1140.3977,575.01245,1140.3538L575.01245,1140.354C575.0523,1140.3252,575.2808,1140.2333,575.5302,1140.1598L575.5302,1140.1598C575.76495,1140.0941,575.9306,1140.0292,575.97644,1139.9437C575.99005,1139.9186,575.99524,1139.889,575.9869,1139.8588C575.98566,1139.8544,575.9841,1139.85,575.9825,1139.8461L575.9825,1139.8463C575.9581,1139.7809,575.9024,1139.7203,575.8407,1139.7047L575.8407,1139.705C575.83307,1139.7028,575.8249,1139.7013,575.81616,1139.7008L575.8141,1139.7013C575.7761,1139.6935,575.6267,1139.6083,575.44916,1139.4945L575.4489,1139.495C575.27155,1139.369,574.98517,1139.2002,574.822,1139.1184L574.822,1139.1187C574.49664,1138.9524,573.95685,1138.571,573.86145,1138.4609L573.8594,1138.4612C573.91205,1138.376,574.20276,1138.1136,574.4404,1137.9684L574.4404,1137.9686C574.8201,1137.7379,575.69354,1136.986,575.7621,1136.8285L575.7025,1136.8024L575.7005,1136.8026C575.7006,1136.8024,575.7006,1136.8021,575.70074,1136.8016L575.70074,1136.8021L575.7621,1136.8285C575.76544,1136.8209,575.78125,1136.7855,575.76025,1136.7504C575.757,1136.745,575.7531,1136.7399,575.7488,1136.7357L575.7488,1136.736C575.74146,1136.7284,575.73346,1136.7233,575.7292,1136.7208C575.65906,1136.6796,575.28186,1136.5814,574.8715,1136.4991L574.8714,1136.4994C574.4968,1136.4166,574.1888,1136.3383,574.105,1136.3014L574.10297,1136.3014C574.1147,1136.223,574.2621,1135.9703,574.4768,1135.7362L574.4783,1135.7345C574.56445,1135.6339,574.7697,1135.3995,574.929,1135.2184L574.92926,1135.2179L575.2205,1134.8832C575.23737,1134.8639,575.2416,1134.8368,575.2316,1134.8131C575.22174,1134.7897,575.19934,1134.7738,575.17377,1134.7723L574.3953,1134.7286L574.39575,1134.7289C573.9725,1134.6998,573.44714,1134.6776,573.2263,1134.6779C573.098,1134.6779,572.9921,1134.6722,572.9303,1134.6652L572.9283,1134.6652C572.97235,1134.559,573.0748,1134.3273,573.1993,1134.0675L573.19946,1134.067C573.36725,1133.7096,573.5761,1133.2631,573.6652,1133.0629L573.66516,1133.0631C573.74805,1132.8912,573.79913,1132.7269,573.785,1132.6493C573.78204,1132.6332,573.77264,1132.5995,573.73883,1132.5819L573.73883,1132.5819C573.73553,1132.5802,573.7324,1132.579,573.7316,1132.5785L573.72687,1132.577C573.7201,1132.5746,573.71454,1132.5739,573.71027,1132.5734L573.71014,1132.5734C573.70044,1132.5719,573.6893,1132.5714,573.67957,1132.5714C573.46875,1132.5714,572.3229,1132.7833,572.19055,1132.8651L572.1902,1132.8651C572.187,1132.8671,572.1838,1132.8695,572.1807,1132.8717L572.18054,1132.872C572.10846,1132.9191,571.82983,1132.9691,571.6571,1132.9691C571.63257,1132.9691,571.6139,1132.9679,571.60016,1132.9667L571.59827,1132.9667C571.6139,1132.6974,571.7657,1131.7865,571.8101,1131.6769L571.8101,1131.6769C571.8851,1131.4994,571.97095,1130.93,571.934,1130.8094C571.9313,1130.8002,571.9208,1130.7675,571.88715,1130.7533L571.8864,1130.7526C571.8823,1130.7509,571.8777,1130.7491,571.8721,1130.7482L571.87195,1130.7484L571.85236,1130.7467C571.8479,1130.747,571.8425,1130.7477,571.8387,1130.7484L571.8384,1130.7484C571.7028,1130.775,570.6006,1131.3431,570.39923,1131.4869L570.39856,1131.4874C570.33374,1131.535,570.27747,1131.5626,570.2439,1131.5731C570.2292,1131.461,570.2138,1131.1273,570.2138,1130.7335C570.2138,1130.2711,570.1909,1129.8995,570.1419,1129.8099L570.1419,1129.8102C570.13696,1129.8007,570.12756,1129.7858,570.1112,1129.775L570.1111,1129.775C570.09503,1129.7643,570.0775,1129.7594,570.0618,1129.7577L570.06165,1129.7577C570.057,1129.7574,570.0504,1129.7567,570.04584,1129.7567C569.9603,1129.7567,569.82855,1129.8317,569.7199,1129.9161L569.7188,1129.9174C569.3605,1130.2096,568.34326,1131.0597,568.1527,1131.2208L568.14984,1131.2235C568.0849,1131.2853,568.05646,1131.3082,568.0427,1131.3153C568.0354,1131.3085,568.022,1131.2926,567.9959,1131.2557C567.9521,1131.193,567.8309,1130.8973,567.73584,1130.5831L567.7356,1130.5824C567.6452,1130.2899,567.54285,1129.9999,567.50397,1129.942L567.50385,1129.942C567.5032,1129.941,567.50256,1129.9401,567.50195,1129.9393L567.5018,1129.9396C567.4788,1129.9049,567.3949,1129.691,567.3136,1129.4474L567.31354,1129.4476C567.25085,1129.2401,567.1581,1129.035,567.0807,1128.982L567.0806,1128.982C567.068,1128.9733,567.0484,1128.9628,567.02386,1128.9628C567.0094,1128.9628,566.99524,1128.9664,566.9846,1128.9706L566.98444,1128.9706C566.90247,1129.0018,566.79474,1129.1478,566.71765,1129.289L566.7175,1129.2894C566.6306,1129.4486,566.55023,1129.5814,566.5317,1129.6024L566.5317,1129.6024C566.5299,1129.6041,566.52795,1129.6061,566.52734,1129.6068L566.52734,1129.607C566.4951,1129.6439,566.36365,1129.8495,566.2316,1130.0651L566.23096,1130.0658C566.08466,1130.3129,566.03534,1130.382,566.0101,1130.393C566.0039,1130.3907,565.9894,1130.3815,565.95593,1130.3497L565.9548,1130.349C565.8896,1130.2899,565.84906,1130.2164,565.846,1130.1947L565.84595,1130.195C565.84595,1130.1061,565.7672,1130.0302,565.69977,1129.9965L565.6933,1129.9938C565.65283,1129.9786,565.62756,1129.9403,565.62756,1129.9181C565.62756,1129.9122,565.627,1129.9066,565.62634,1129.9025C565.61523,1129.8224,565.49054,1129.6058,565.36053,1129.421C565.2312,1129.2372,565.1326,1129.0629,565.1188,1129.0155L565.1179,1129.0157C565.1179,1128.9655,565.0987,1128.9108,565.054,1128.8785L565.054,1128.8788C565.0327,1128.8629,565.00684,1128.8536,564.9783,1128.8536 Z"/>
</g>
<g style="fill:rgb(244,67,54); fill-opacity:1.0; stroke-linejoin: miter">
<path d="M566.0855,1132.9652C565.3686,1132.9652,564.59955,1133.0563,564.28455,1133.224L564.2845,1133.2242C564.165,1133.2836,564.04974,1133.3251,564.01764,1133.3251L564.0151,1133.3256C563.8995,1133.3275,563.37274,1133.558,563.29425,1133.6351C563.2722,1133.6534,563.14075,1133.7267,562.98303,1133.8055C562.59155,1134.0013,561.2561,1135.3369,561.0604,1135.7283C560.98114,1135.8872,560.9081,1136.0186,560.8899,1136.0398L560.88983,1136.0398C560.8865,1136.0432,560.8837,1136.0466,560.88214,1136.0488L560.8821,1136.0491C560.8488,1136.0925,560.75476,1136.291,560.6659,1136.4961L560.6659,1136.4961C560.6539,1136.5237,560.61816,1136.6055,560.6059,1136.634C560.56665,1136.7241,560.58624,1136.6787,560.5484,1136.7664L560.5482,1136.7666C560.49524,1136.8892,560.4495,1136.9958,560.4314,1137.0457L560.43115,1137.0459C560.2211,1137.5347,560.14343,1139.3474,560.2979,1140.0317C560.3941,1140.4751,560.70233,1141.2539,560.911,1141.5818L560.911,1141.5818C560.9971,1141.718,561.1121,1141.9265,561.16895,1142.0474L561.16943,1142.0483C561.36664,1142.4504,562.573,1143.5806,563.0695,1143.8401L563.0695,1143.8401C563.3069,1143.9656,563.5717,1144.0825,563.6536,1144.0876L563.6543,1144.0876C563.6559,1144.0876,563.6593,1144.0876,563.661,1144.0876C563.7061,1144.0876,563.7271,1144.1106,563.7285,1144.1147L563.7285,1144.1147C563.73505,1144.1345,563.7482,1144.148,563.7559,1144.155L563.75604,1144.1553C563.8835,1144.271,564.8939,1144.5247,565.2042,1144.5247C565.32416,1144.5247,565.41516,1144.5503,565.4323,1144.5662L565.4316,1144.5662C565.4416,1144.582,565.45496,1144.5916,565.4638,1144.5969C565.53613,1144.6418,565.7705,1144.6699,565.99774,1144.6699C566.2251,1144.6699,566.45953,1144.6418,566.53174,1144.5969C566.54034,1144.5918,566.55304,1144.5828,566.56305,1144.5676L566.56213,1144.5679C566.5822,1144.5503,566.687,1144.5247,566.8277,1144.5247C567.2492,1144.5247,568.14777,1144.2656,568.64923,1144.0L568.64923,1144.0005C569.7595,1143.4268,570.9157,1142.2363,571.2942,1141.2793L571.294,1141.2795C571.3691,1141.092,571.4425,1140.9294,571.46857,1140.9014L571.46857,1140.9016L571.4735,1140.896C571.6366,1140.6919,571.7868,1139.6311,571.79395,1138.8528L571.79395,1138.852C571.7939,1137.8729,571.6919,1137.2069,571.43854,1136.6552L571.43854,1136.6554C571.34796,1136.4532,571.2784,1136.2806,571.27014,1136.2386L571.2697,1136.2389C571.2697,1136.2289,571.2679,1136.2201,571.26654,1136.2145L571.26654,1136.2145C571.25024,1136.1481,571.1303,1135.9513,571.0037,1135.7648L571.00366,1135.7648L571.0031,1135.7638L571.00287,1135.7633C570.8809,1135.5839,570.7843,1135.4327,570.76166,1135.3868L570.7597,1135.3868C570.75757,1135.3683,570.7478,1135.3534,570.746,1135.3512L570.7459,1135.3512C570.7132,1135.3026,570.4713,1135.0485,570.19446,1134.7716L570.19434,1134.7714C569.5279,1134.1124,568.7701,1133.5885,568.1457,1133.3727C567.89215,1133.2833,567.671,1133.1993,567.63635,1133.1764L567.5993,1133.232L567.63336,1133.1744C567.63245,1133.174,567.63055,1133.1727,567.6275,1133.1713L567.6275,1133.1713C567.5729,1133.1427,567.3328,1133.0844,567.1094,1133.0426L567.10895,1133.0424C566.8196,1132.9896,566.4563,1132.9652,566.0855,1132.9652 Z"/>
</g>
<g style="fill:rgb(244,67,54); fill-opacity:1.0; stroke-linejoin: miter">
<path d="M574.3227,1137.1552L574.38635,1137.1422C574.3857,1137.1393,574.3849,1137.1364,574.384,1137.1342L574.384,1137.1342L574.3226,1137.1547L574.32056,1137.1547C574.32056,1137.1549,574.32056,1137.1549,574.32056,1137.1552 Z M565.8564,1145.1301C566.5405,1145.1299,567.70593,1144.9783,568.0517,1144.8284L568.0528,1144.8279C568.08954,1144.8125,568.1282,1144.7966,568.1835,1144.7734C568.25415,1144.7439,568.34906,1144.7046,568.43616,1144.6687L568.43604,1144.6682C568.51,1144.6382,568.60315,1144.6001,568.67206,1144.5725L568.67206,1144.5723C569.0141,1144.4294,569.3664,1144.2214,570.00525,1143.7783L570.00525,1143.7783C570.7334,1143.2705,571.80865,1141.6826,572.05194,1140.7578L572.05194,1140.7578C572.0964,1140.5725,572.18353,1140.2744,572.2497,1140.083L572.24963,1140.0828C572.3254,1139.8333,572.34766,1139.5156,572.3255,1138.7236L572.3255,1138.7234C572.3032,1137.8314,572.2672,1137.6134,572.0951,1137.0975L572.0951,1137.0975C571.63947,1135.7474,570.93994,1134.7181,569.90247,1133.8978L569.90216,1133.8976C569.6245,1133.6757,569.384,1133.5077,569.3314,1133.4896L569.3294,1133.4894C569.32605,1133.4891,569.3229,1133.4886,569.3199,1133.4884L569.3196,1133.4879C569.2567,1133.4762,569.07153,1133.3776,568.8984,1133.2777L568.89764,1133.2772C568.7062,1133.164,568.3611,1133.0131,568.126,1132.942L568.12585,1132.9415C567.8841,1132.8761,567.6259,1132.7806,567.54755,1132.7413L567.547,1132.7411C567.3568,1132.6439,566.7242,1132.5753,566.09064,1132.5758C565.81384,1132.5758,565.5412,1132.5895,565.3149,1132.6178L565.31433,1132.618L565.3126,1132.618C564.92957,1132.6603,564.60583,1132.7201,564.5449,1132.7452L564.54364,1132.745C564.49176,1132.784,564.29785,1132.8514,564.1231,1132.9005L564.1231,1132.9003C563.77466,1132.9984,562.829,1133.4503,562.72516,1133.5509L562.7239,1133.5507C562.71936,1133.5597,562.71436,1133.5663,562.70996,1133.5714L562.70996,1133.5714C562.6707,1133.6176,562.52814,1133.7045,562.3979,1133.7762L562.39496,1133.7777C562.1113,1133.9164,560.96387,1135.0852,560.79486,1135.4026L560.79486,1135.4026C560.73645,1135.512,560.62134,1135.7356,560.541,1135.8965L560.5404,1135.8972C559.99335,1136.9424,559.84283,1137.594,559.84344,1138.9236C559.8511,1139.8389,559.9459,1140.4973,560.1303,1140.9365L560.1307,1140.9373C560.3555,1141.4917,560.5477,1141.9097,560.58936,1141.9695L560.5875,1141.9692L560.58966,1141.9705C560.59125,1141.9719,560.59125,1141.9719,560.59326,1141.9741C560.6236,1142.0073,560.6851,1142.1167,560.73975,1142.219L560.7403,1142.2202C561.0181,1142.761,562.2023,1143.9438,562.74335,1144.2212L562.74426,1144.2217C562.8462,1144.2759,562.95526,1144.3369,562.98895,1144.3674L562.98883,1144.3674C562.9902,1144.3689,562.9906,1144.3691,562.99097,1144.3696L562.99084,1144.3694C563.0368,1144.4055,563.4373,1144.5857,564.02423,1144.8357L564.0239,1144.8354C564.14154,1144.8772,564.4797,1144.9565,564.7757,1144.9998C564.9596,1145.0264,565.11444,1145.05,565.2694,1145.0735L565.2694,1145.0732C565.36255,1145.0876,565.4374,1145.0991,565.4847,1145.1057L565.4848,1145.1057C565.5017,1145.1082,565.48773,1145.1064,565.5035,1145.1084L565.50555,1145.1086C565.58936,1145.1233,565.7092,1145.1301,565.8564,1145.1301 Z M565.05914,1148.9255C565.02893,1148.9255,565.005,1148.9121,564.98834,1148.8977L564.98834,1148.8975C564.94244,1148.8577,564.9193,1148.7832,564.9193,1148.7129C564.91925,1148.6704,564.9094,1148.6411,564.90314,1148.6292L564.90125,1148.6292C564.8796,1148.6208,564.86707,1148.6045,564.86505,1148.6018C564.81525,1148.542,564.72003,1148.2852,564.6309,1148.0054L564.63043,1148.0037C564.5394,1147.6897,564.44696,1147.4412,564.4206,1147.405L564.41876,1147.4048C564.41693,1147.4036,564.41516,1147.4021,564.41364,1147.4004L564.4136,1147.4004C564.3619,1147.3491,564.30493,1147.1938,564.2659,1147.0571L564.2656,1147.0564C564.2114,1146.8564,564.1689,1146.8315,564.14886,1146.8315C564.1112,1146.8315,564.036,1146.8784,563.8915,1147.0339L563.8912,1147.0342C563.64624,1147.2932,562.6491,1148.1978,562.52783,1148.261L562.52783,1148.261C562.5252,1148.2622,562.5089,1148.2715,562.48895,1148.2715C562.4337,1148.2715,562.41754,1148.2109,562.41907,1148.2109L562.4197,1148.2109C562.40027,1148.1316,562.36774,1147.738,562.34155,1147.2839L562.34155,1147.2839C562.31177,1146.7593,562.253,1146.2754,562.20984,1146.189L562.2076,1146.1843L562.15576,1146.0574L561.6762,1146.3198L561.67596,1146.3201L561.6745,1146.3208C560.965,1146.7039,560.3652,1147.0098,560.2679,1147.032L560.2678,1147.032C560.2664,1147.0325,560.2649,1147.0327,560.26324,1147.033L560.26215,1147.033L560.247,1147.0347L560.2451,1147.0344L560.2062,1147.0222C560.1789,1147.0027,560.17554,1146.969,560.17566,1146.969L560.17566,1146.969C560.1631,1146.8916,560.20197,1146.5073,560.2669,1146.0701L560.2669,1146.0701C560.2968,1145.8665,560.32294,1145.6917,560.3468,1145.532C560.3612,1145.4358,560.37836,1145.3206,560.3867,1145.2639L560.3867,1145.2639C560.3908,1145.2361,560.39417,1145.2122,560.3968,1145.1934C560.2436,1145.2026,559.89233,1145.2891,559.8203,1145.3398L559.8203,1145.3396C559.8174,1145.3418,559.81354,1145.3447,559.8112,1145.3462L559.8107,1145.3462C559.7093,1145.4092,558.8401,1145.647,558.6929,1145.6519L558.69104,1145.6519L558.6877,1145.6523L558.6858,1145.6523L558.676,1145.6519C558.62335,1145.644,558.6097,1145.5952,558.6067,1145.581C558.6,1145.5498,558.6034,1145.5095,558.609,1145.4722C558.62866,1145.3408,558.6975,1145.125,558.7769,1145.0029L558.7767,1145.0029C558.8201,1144.9219,558.9322,1144.669,559.0173,1144.4343C559.10425,1144.1951,559.20844,1143.9619,559.2427,1143.9104L559.2482,1143.9031L559.24817,1143.9031C559.2956,1143.8386,559.478,1143.3057,559.5207,1143.1289L559.51874,1143.1289C559.42126,1143.1167,559.1943,1143.1047,558.9195,1143.1047C558.5394,1143.1047,557.93353,1143.0833,557.5686,1143.0613L557.5675,1143.0613L556.91235,1143.0107C556.88715,1143.0088,556.86536,1142.9927,556.85565,1142.9697C556.84595,1142.9463,556.8502,1142.9197,556.8666,1142.9006L557.41943,1142.2524L557.42004,1142.2517C557.7263,1141.9023,557.9506,1141.5808,557.96405,1141.5186L557.9632,1141.5183C557.95844,1141.49,557.90894,1141.4458,557.57886,1141.3708L557.57886,1141.3708C556.6659,1141.1641,556.37634,1141.0986,556.3032,1141.0198L556.3032,1141.0198C556.2921,1141.0078,556.2833,1140.9941,556.27795,1140.978L556.2765,1140.9731C556.2691,1140.9441,556.2817,1140.9192,556.2852,1140.9124L556.2852,1140.9121C556.34735,1140.7903,556.9497,1140.29,557.1294,1140.2107L557.1303,1140.2104C557.2434,1140.1628,557.8507,1139.669,557.9831,1139.5293L557.9812,1139.529C557.94763,1139.5017,557.88354,1139.4597,557.80457,1139.4224L557.8031,1139.4216C557.6929,1139.3667,557.4617,1139.2417,557.22217,1139.1128L557.22205,1139.1125L557.0512,1139.0205L557.0513,1139.0205C557.0504,1139.0203,557.04803,1139.0188,557.0461,1139.0176L557.04596,1139.0176C556.7705,1138.8584,556.41016,1138.6643,556.25433,1138.5938L556.25214,1138.5925L555.9608,1138.447C555.93744,1138.4353,555.92303,1138.4111,555.9238,1138.385C555.9246,1138.3589,555.9406,1138.3357,555.9647,1138.3257L556.32874,1138.1724L556.3283,1138.1726L556.33826,1138.1685L556.33826,1138.1682C556.4697,1138.1118,556.40564,1138.1394,556.55414,1138.0759C556.59766,1138.0574,556.7892,1137.9751,556.8353,1137.9556C556.9307,1137.9146,557.0153,1137.8779,557.0922,1137.8447L557.0922,1137.8447C557.31036,1137.75,557.5968,1137.6323,557.73096,1137.5874L557.73083,1137.5874C558.0226,1137.4778,558.0409,1137.429,558.01825,1137.3689C557.9878,1137.2876,557.87634,1137.166,557.65497,1136.9575C556.84143,1136.1953,556.6059,1135.9802,556.5922,1135.8596C556.5895,1135.8354,556.5937,1135.8135,556.6023,1135.7944L556.6024,1135.7942C556.61035,1135.7764,556.62115,1135.7627,556.62976,1135.7522L556.6303,1135.7515C556.6348,1135.7463,556.63995,1135.7417,556.6442,1135.738C556.72314,1135.6719,557.0239,1135.6172,557.3154,1135.5901L557.31647,1135.5901L557.3177,1135.5896L557.31757,1135.5896C558.0506,1135.529,558.2615,1135.4783,558.2889,1135.4348L558.28705,1135.4348C558.2715,1135.3804,558.1599,1135.1865,558.0092,1134.9744C557.86206,1134.7739,557.7298,1134.5667,557.71027,1134.5056L557.71027,1134.5054C557.70874,1134.5005,557.7058,1134.49,557.7055,1134.4785L557.7037,1134.4783C557.6887,1134.4426,557.62555,1134.3401,557.53754,1134.227C557.44653,1134.1101,557.36414,1133.9883,557.347,1133.9402L557.347,1133.9402C557.3452,1133.935,557.3413,1133.9233,557.3413,1133.9097C557.34125,1133.853,557.3985,1133.8369,557.3994,1133.8369L557.39954,1133.8369C557.44366,1133.823,557.54956,1133.8193,557.67426,1133.8193C558.21326,1133.8191,559.43604,1133.8943,559.57385,1133.9517L559.57385,1133.9517C559.579,1133.9539,559.5892,1133.9587,559.5983,1133.9661L559.603,1133.9705C559.62134,1133.987,559.71844,1134.0164,559.8324,1134.0164C559.91925,1134.0164,559.94354,1134.0127,559.9518,1134.0076L559.94995,1134.0073C559.95087,1134.0039,559.95215,1133.9966,559.9521,1133.9829L559.9521,1133.9827C559.9521,1133.9446,559.9431,1133.8855,559.9266,1133.7888L559.92645,1133.7886C559.8536,1133.3589,559.68695,1132.7126,559.60443,1132.5479L559.6038,1132.5469C559.53265,1132.3977,559.3218,1131.616,559.32495,1131.5002L559.32495,1131.5002L559.32495,1131.5C559.3247,1131.4968,559.32495,1131.46,559.3545,1131.4382L559.3544,1131.438C559.3727,1131.4241,559.39343,1131.4229,559.4002,1131.4229C559.40173,1131.4229,559.4026,1131.4229,559.4024,1131.4229C559.40436,1131.4229,559.4068,1131.4229,559.4086,1131.4229L559.4085,1131.4229C559.5201,1131.4285,560.26044,1131.69,560.35315,1131.7595L560.35315,1131.7595C560.35706,1131.7625,560.36285,1131.7671,560.3686,1131.7737L560.3684,1131.7734C560.40656,1131.8076,560.66974,1131.9084,561.0423,1132.0159L561.04224,1132.0156L561.12085,1132.0364L561.07465,1131.218L561.07465,1131.2185L561.0745,1131.2166C561.05505,1130.7705,561.05096,1130.3711,561.0769,1130.2881L561.0768,1130.2878C561.0779,1130.2827,561.09375,1130.2324,561.1453,1130.2302L561.14813,1130.2302L561.1483,1130.23C561.1589,1130.2302,561.1678,1130.2324,561.17334,1130.2336L561.17334,1130.2336C561.2323,1130.2495,561.411,1130.3538,561.5788,1130.4744L561.57874,1130.4741L561.5966,1130.4861L561.5966,1130.4861L561.6576,1130.5269L561.6576,1130.5269C561.65765,1130.5269,561.7065,1130.5596,561.7129,1130.564C562.1124,1130.8314,562.2446,1130.9171,562.3043,1130.9445L562.3062,1130.9445C562.34546,1130.5602,562.36957,1128.2987,562.37415,1123.9117L562.37415,1123.9117L562.3926,1116.7992C562.39264,1116.7709,562.4104,1116.746,562.43695,1116.7365C562.44434,1116.7338,562.4519,1116.7325,562.4595,1116.7325C562.47906,1116.7325,562.4981,1116.7411,562.51105,1116.7567L562.96265,1117.3026L562.9626,1117.3026C563.20966,1117.6,563.52997,1117.9711,563.6745,1118.1298L563.6756,1118.131C563.7187,1118.181,563.8024,1118.2784,563.89636,1118.3881L563.8965,1118.3881C564.0521,1118.5695,564.2795,1118.8344,564.48694,1119.0743C564.542,1119.1383,564.56055,1119.1595,564.6151,1119.2225L564.61584,1119.2235C564.9881,1119.6681,565.452,1120.211,565.64923,1120.4376C565.8404,1120.6569,566.0312,1120.8163,566.08234,1120.8292L566.07947,1120.829L566.08405,1120.8295L566.08606,1120.8295C566.1166,1120.8263,566.21484,1120.747,566.2994,1120.6129C566.3862,1120.4752,566.5264,1120.3055,566.6266,1120.2601L566.6257,1120.2599C566.68677,1120.222,566.72235,1120.1791,566.72595,1120.1647L566.72577,1120.1644C566.72656,1120.1461,566.735,1120.1315,566.7356,1120.1305L566.73566,1120.1302C566.8201,1119.9662,568.69995,1117.7775,569.1744,1117.2814L569.17535,1117.2804C569.27936,1117.1761,569.3404,1117.0807,569.3451,1117.055L569.345,1117.0548C569.34515,1117.0482,569.34595,1117.0419,569.347,1117.0365L569.347,1117.0363C569.3586,1116.975,569.4207,1116.8969,569.47687,1116.8478L569.4769,1116.8475L569.4783,1116.8466C569.48724,1116.839,569.50604,1116.8258,569.5322,1116.8258C569.57825,1116.8258,569.6005,1116.8624,569.6078,1116.8768L569.6078,1116.8768C569.6879,1117.035,569.6993,1118.2992,569.71497,1123.93L569.71497,1123.93C569.7365,1129.5077,569.75323,1130.7526,569.81226,1130.9706L569.81415,1130.9703C569.90576,1130.9279,570.13464,1130.7894,570.3757,1130.61L570.37665,1130.6095C570.64105,1130.4191,570.9135,1130.2455,570.99774,1130.2277L570.9979,1130.2277C571.0044,1130.2262,571.011,1130.2252,571.01965,1130.2252C571.06323,1130.2252,571.0877,1130.2567,571.09796,1130.2743C571.13214,1130.3329,571.1411,1130.4669,571.1412,1130.6217C571.14136,1130.9027,571.1091,1131.3287,571.05035,1131.7787L571.0501,1131.7797C571.0318,1131.9037,571.0305,1131.994,571.03546,1132.0394L571.0375,1132.0394C571.2048,1132.0035,571.75494,1131.8124,571.8181,1131.7665L571.8181,1131.7662C571.94183,1131.672,572.6943,1131.4166,572.81433,1131.4161L572.81464,1131.4159C572.81506,1131.4161,572.8159,1131.4161,572.8169,1131.4161C572.82465,1131.4161,572.8477,1131.4171,572.8676,1131.4332L572.8257,1131.4855L572.8733,1131.4381C572.89777,1131.463,572.896,1131.4957,572.89575,1131.5028C572.8937,1131.5558,572.8532,1131.6603,572.80554,1131.7555L572.80396,1131.7584C572.74335,1131.8663,572.6434,1132.1644,572.578,1132.4188C572.5124,1132.6818,572.4106,1133.0323,572.3434,1133.205L572.3434,1133.2047C572.2241,1133.5284,572.2513,1133.5773,572.3094,1133.5988L572.3094,1133.5985C572.34033,1133.6102,572.38947,1133.6171,572.4627,1133.6171C572.5273,1133.6171,572.6072,1133.6119,572.704,1133.6027L572.70386,1133.6027C572.95416,1133.5739,573.16644,1133.5333,573.2028,1133.5128L573.2026,1133.5126L573.20276,1133.5126C573.20654,1133.5099,573.20966,1133.5082,573.2125,1133.5065L573.2125,1133.5062C573.324,1133.4423,573.95026,1133.3881,574.25586,1133.3881C574.3365,1133.3881,574.4125,1133.3912,574.4517,1133.4052L574.4517,1133.4049C574.45416,1133.4061,574.50964,1133.423,574.50964,1133.4791C574.50964,1133.4904,574.507,1133.5006,574.50555,1133.5055L574.50555,1133.5055C574.4884,1133.5643,574.37036,1133.7604,574.24475,1133.9591L574.2441,1133.9601C574.1205,1134.1488,574.02313,1134.3131,574.0025,1134.3627L574.0005,1134.3624C574.0002,1134.3729,573.9978,1134.3815,573.9966,1134.3859L573.9966,1134.3856C573.9789,1134.4476,573.8472,1134.6766,573.69916,1134.9059L573.69867,1134.9066C573.55554,1135.128,573.44495,1135.3239,573.42163,1135.3834L573.4197,1135.3834C573.4635,1135.4188,573.67413,1135.455,574.4876,1135.5455L574.48785,1135.5458C574.921,1135.5961,575.3627,1135.6764,575.46924,1135.7255L575.471,1135.7264L575.47125,1135.7264L575.4712,1135.7262C575.50195,1135.7418,575.5417,1135.7623,575.5663,1135.7938C575.58575,1135.8187,575.59515,1135.8495,575.5908,1135.8834L575.5908,1135.8832C575.5883,1135.9022,575.5817,1135.9208,575.57336,1135.9379C575.52423,1136.0363,575.3472,1136.2003,574.99176,1136.5275L574.99176,1136.5275C574.68976,1136.805,574.4577,1137.0514,574.3986,1137.1403L574.3966,1137.14C574.43787,1137.1691,574.54004,1137.2196,574.6648,1137.2579L574.6646,1137.2577C574.84155,1137.3019,575.0262,1137.3771,575.0877,1137.421L575.0877,1137.4208C575.1276,1137.4496,575.35626,1137.5411,575.60565,1137.6146L575.60565,1137.6146C575.84045,1137.68,576.00604,1137.745,576.052,1137.8304C576.06555,1137.8556,576.0708,1137.8851,576.06244,1137.9154C576.0613,1137.92,576.0597,1137.9242,576.05817,1137.9281L576.05817,1137.9279C576.0337,1137.9933,575.9781,1138.0538,575.9163,1138.0695L575.9163,1138.0692C575.90875,1138.0717,575.9005,1138.0729,575.8918,1138.0734L575.8898,1138.0731C575.8518,1138.0809,575.70245,1138.1661,575.52484,1138.2797L575.52466,1138.2794C575.3474,1138.4054,575.06104,1138.5747,574.8979,1138.6562L574.8979,1138.6562C574.57263,1138.8228,574.033,1139.2043,573.9376,1139.3145L573.9356,1139.3142C573.9883,1139.3997,574.27924,1139.6611,574.517,1139.8064L574.517,1139.8062C574.89685,1140.0369,575.7705,1140.7885,575.8392,1140.9457L575.7796,1140.9718L575.7775,1140.9713C575.77765,1140.972,575.7778,1140.9723,575.77783,1140.9725L575.77783,1140.9723L575.8392,1140.9457C575.84247,1140.9532,575.85834,1140.9889,575.83734,1141.024C575.83417,1141.0294,575.83014,1141.0345,575.82587,1141.0385L575.82587,1141.0385C575.81854,1141.046,575.81055,1141.0509,575.8062,1141.0536C575.73615,1141.0946,575.359,1141.193,574.9487,1141.2756L574.94867,1141.2754C574.57416,1141.3584,574.26605,1141.4368,574.18225,1141.4739L574.18036,1141.4736C574.1921,1141.5522,574.33954,1141.8047,574.55444,1142.0388L574.5559,1142.0405C574.6421,1142.1409,574.8475,1142.3755,575.00684,1142.5564L575.00714,1142.5569L575.29846,1142.8915C575.3153,1142.9105,575.3195,1142.9376,575.30963,1142.9613C575.2998,1142.9847,575.2773,1143.0006,575.2518,1143.0021L574.4734,1143.0461L574.47375,1143.0461C574.0506,1143.0757,573.5253,1143.0977,573.3044,1143.0979C573.1762,1143.0979,573.07025,1143.1038,573.0085,1143.1108L573.0063,1143.1106C573.05054,1143.2168,573.1531,1143.4485,573.2777,1143.7083L573.27783,1143.709C573.44574,1144.0657,573.65485,1144.5122,573.7441,1144.7124L573.74396,1144.7124C573.82697,1144.884,573.8781,1145.0483,573.864,1145.126C573.8611,1145.1421,573.85175,1145.1758,573.81793,1145.1934L573.81793,1145.1934C573.81464,1145.1953,573.8115,1145.1963,573.8108,1145.1968L573.806,1145.1982C573.7992,1145.2007,573.79364,1145.2014,573.78937,1145.2021L573.7893,1145.2019C573.7796,1145.2036,573.76843,1145.2039,573.7587,1145.2039C573.5479,1145.2039,572.40186,1144.9929,572.2696,1144.9111L572.2691,1144.9109C572.266,1144.9089,572.2627,1144.9067,572.2597,1144.9043L572.25946,1144.904C572.1874,1144.8572,571.9086,1144.8069,571.7361,1144.8071C571.7115,1144.8071,571.6928,1144.8083,571.67914,1144.8098L571.67725,1144.8096C571.69293,1145.0789,571.84515,1145.9895,571.88965,1146.0994L571.88965,1146.0994C571.96466,1146.2769,572.05084,1146.8462,572.014,1146.9666C572.0112,1146.9756,572.00073,1147.0085,571.96704,1147.023L571.9664,1147.0232C571.9623,1147.0249,571.9577,1147.0266,571.9521,1147.0278L571.95184,1147.0276L571.9324,1147.0293C571.9279,1147.029,571.92255,1147.0283,571.9187,1147.0276L571.91833,1147.0276C571.7828,1147.0012,570.68024,1146.4333,570.47876,1146.2898L570.47815,1146.2893C570.4133,1146.2417,570.35706,1146.2144,570.3235,1146.2039C570.30884,1146.3159,570.2936,1146.6497,570.2937,1147.0435C570.294,1147.5059,570.27136,1147.8772,570.2223,1147.967L570.2223,1147.9668C570.21735,1147.9761,570.208,1147.9912,570.19165,1148.002L570.19147,1148.002C570.1755,1148.0127,570.15796,1148.0176,570.1423,1148.0193L570.1421,1148.0193C570.1373,1148.0195,570.1308,1148.0203,570.1262,1148.0203C570.0408,1148.0203,569.909,1147.9453,569.80035,1147.8611L569.79913,1147.8599C569.44073,1147.5676,568.42303,1146.7178,568.2325,1146.5569L568.2295,1146.5542C568.1647,1146.4924,568.13617,1146.4697,568.12244,1146.4624C568.1152,1146.4695,568.10175,1146.4854,568.0756,1146.5222C568.0319,1146.585,567.91077,1146.8809,567.8159,1147.1951L567.8157,1147.1953C567.72534,1147.488,567.62317,1147.7783,567.5843,1147.8362L567.5842,1147.8362C567.58356,1147.8372,567.5829,1147.8379,567.5823,1147.8389L567.58203,1147.8389C567.5592,1147.8733,567.4754,1148.0872,567.3942,1148.331L567.3941,1148.3306C567.3315,1148.5383,567.2389,1148.7432,567.1615,1148.7964L567.16144,1148.7964C567.1488,1148.8049,567.12915,1148.8154,567.10474,1148.8154C567.0901,1148.8154,567.07605,1148.8118,567.0654,1148.8079L567.06525,1148.8079C566.98315,1148.7764,566.8754,1148.6309,566.7983,1148.4895L566.7982,1148.4893C566.71124,1148.3301,566.63074,1148.197,566.6122,1148.1763L566.6122,1148.1763C566.6105,1148.1746,566.60846,1148.1724,566.6079,1148.1719L566.6079,1148.1714C566.5756,1148.1345,566.4441,1147.929,566.3118,1147.7136L566.3113,1147.7129C566.16473,1147.4661,566.11554,1147.3967,566.0902,1147.3857C566.084,1147.3882,566.0696,1147.3975,566.03613,1147.429L566.0349,1147.4299C565.9697,1147.489,565.92926,1147.5625,565.9262,1147.5842L565.92615,1147.584C565.92615,1147.6729,565.8474,1147.7485,565.78,1147.7825L565.77356,1147.7854C565.73315,1147.8003,565.7078,1147.8386,565.70795,1147.8611C565.70795,1147.8667,565.70734,1147.8723,565.7068,1147.8767C565.6956,1147.9565,565.57104,1148.1733,565.44116,1148.3582C565.31195,1148.542,565.21344,1148.7166,565.1996,1148.7637L565.1987,1148.7637C565.1987,1148.8137,565.1795,1148.8684,565.13495,1148.9006L565.13495,1148.9006C565.1136,1148.9163,565.08777,1148.9255,565.05914,1148.9255 Z"/>
</g>
</g>
</svg>